<?xml version="1.0" encoding="UTF-8"?>
<!DOCTYPE svg PUBLIC "-//W3C//DTD SVG 1.1//EN"
    "http://www.w3.org/Graphics/SVG/1.1/DTD/svg11.dtd">
<svg xmlns="http://www.w3.org/2000/svg" xmlns:xlink="http://www.w3.org/1999/xlink" version="1.1" width="280.0" height="274.0788546965627" font-size="1" viewBox="0 0 280 274"><g><g fill="rgb(0,0,0)" fill-opacity="0.0"><g stroke="rgb(0,0,0)" stroke-opacity="1.0" stroke-width="1.0e-2" stroke-linecap="butt" stroke-linejoin="miter" font-size="1.0em" stroke-miterlimit="10.0"><g transform="matrix(45.98626860109579,0.0,0.0,45.98626860109579,136.6181856107611,127.58411000369851)"><g><g fill="rgb(0,128,0)" fill-opacity="1.0"><g fill="rgb(0,128,0)" fill-opacity="1.0"><g fill="rgb(0,128,0)" fill-opacity="1.0"><path d="M 1.803595147226081,-2.4743957899784546 c -3.3306690738754695e-17,-0.16568542494923796 -0.13431457505076197,-0.29999999999999993 -0.29999999999999993 -0.3c -0.16568542494923796,2.3161719532324822e-17 -0.29999999999999993,0.13431457505076194 -0.3 0.2999999999999999c 1.301674832589495e-17,0.16568542494923796 0.13431457505076191,0.29999999999999993 0.2999999999999999 0.3c 0.16568542494923796,-2.871777119465078e-18 0.29999999999999993,-0.13431457505076191 0.3 -0.2999999999999999Z" /></g></g></g><g fill="rgb(255,255,255)" fill-opacity="1.0"><g fill="rgb(255,255,255)" fill-opacity="1.0"><text transform="matrix(0.3,0.0,0.0,0.3,1.503595147226081,-2.4743957899784546)" dominant-baseline="middle" text-anchor="middle" stroke="none">5</text></g></g></g><g><g fill="rgb(0,128,0)" fill-opacity="1.0"><g fill="rgb(0,128,0)" fill-opacity="1.0"><g fill="rgb(0,128,0)" fill-opacity="1.0"><path d="M -1.5886537868220267,-2.1946343125796655 c -3.3306690738754695e-17,-0.16568542494923796 -0.13431457505076197,-0.29999999999999993 -0.29999999999999993 -0.3c -0.16568542494923796,2.3161719532324822e-17 -0.29999999999999993,0.13431457505076194 -0.3 0.2999999999999999c 1.301674832589495e-17,0.16568542494923796 0.13431457505076191,0.29999999999999993 0.2999999999999999 0.3c 0.16568542494923796,-2.871777119465078e-18 0.29999999999999993,-0.13431457505076191 0.3 -0.2999999999999999Z" /></g></g></g><g fill="rgb(255,255,255)" fill-opacity="1.0"><g fill="rgb(255,255,255)" fill-opacity="1.0"><text transform="matrix(0.3,0.0,0.0,0.3,-1.8886537868220268,-2.1946343125796655)" dominant-baseline="middle" text-anchor="middle" stroke="none">4</text></g></g></g><g><g fill="rgb(0,128,0)" fill-opacity="1.0"><g fill="rgb(0,128,0)" fill-opacity="1.0"><g fill="rgb(0,128,0)" fill-opacity="1.0"><path d="M 3.117926693139489,0.6653736127331799 c -3.3306690738754695e-17,-0.16568542494923796 -0.13431457505076197,-0.29999999999999993 -0.29999999999999993 -0.3c -0.16568542494923796,2.3161719532324822e-17 -0.29999999999999993,0.13431457505076194 -0.3 0.2999999999999999c 1.301674832589495e-17,0.16568542494923796 0.13431457505076191,0.29999999999999993 0.2999999999999999 0.3c 0.16568542494923796,-2.871777119465078e-18 0.29999999999999993,-0.13431457505076191 0.3 -0.2999999999999999Z" /></g></g></g><g fill="rgb(255,255,255)" fill-opacity="1.0"><g fill="rgb(255,255,255)" fill-opacity="1.0"><text transform="matrix(0.3,0.0,0.0,0.3,2.8179266931394893,0.6653736127331799)" dominant-baseline="middle" text-anchor="middle" stroke="none">3</text></g></g></g><g><g fill="rgb(0,128,0)" fill-opacity="1.0"><g fill="rgb(0,128,0)" fill-opacity="1.0"><g fill="rgb(0,128,0)" fill-opacity="1.0"><path d="M 0.5379793269178867,2.885619297873919 c -3.3306690738754695e-17,-0.16568542494923796 -0.13431457505076197,-0.29999999999999993 -0.29999999999999993 -0.3c -0.16568542494923796,2.3161719532324822e-17 -0.29999999999999993,0.13431457505076194 -0.3 0.2999999999999999c 1.301674832589495e-17,0.16568542494923796 0.13431457505076191,0.29999999999999993 0.2999999999999999 0.3c 0.16568542494923796,-2.871777119465078e-18 0.29999999999999993,-0.13431457505076191 0.3 -0.2999999999999999Z" /></g></g></g><g fill="rgb(255,255,255)" fill-opacity="1.0"><g fill="rgb(255,255,255)" fill-opacity="1.0"><text transform="matrix(0.3,0.0,0.0,0.3,0.2379793269178867,2.885619297873919)" dominant-baseline="middle" text-anchor="middle" stroke="none">2</text></g></g></g><g><g fill="rgb(0,128,0)" fill-opacity="1.0"><g fill="rgb(0,128,0)" fill-opacity="1.0"><g fill="rgb(0,128,0)" fill-opacity="1.0"><path d="M -2.37084738046143,1.1180371919510206 c -3.3306690738754695e-17,-0.16568542494923796 -0.13431457505076197,-0.29999999999999993 -0.29999999999999993 -0.3c -0.16568542494923796,2.3161719532324822e-17 -0.29999999999999993,0.13431457505076194 -0.3 0.2999999999999999c 1.301674832589495e-17,0.16568542494923796 0.13431457505076191,0.29999999999999993 0.2999999999999999 0.3c 0.16568542494923796,-2.871777119465078e-18 0.29999999999999993,-0.13431457505076191 0.3 -0.2999999999999999Z" /></g></g></g><g fill="rgb(255,255,255)" fill-opacity="1.0"><g fill="rgb(255,255,255)" fill-opacity="1.0"><text transform="matrix(0.3,0.0,0.0,0.3,-2.6708473804614297,1.1180371919510206)" dominant-baseline="middle" text-anchor="middle" stroke="none">1</text></g></g></g><g><g><g stroke-width="2.0e-2"><path d="M 1.2762006709167217,-2.278705129205397 l -3.62084386575274,3.1160182082930543 " /></g><g stroke-width="0.0"><g fill="rgb(0,0,0)" fill-opacity="1.0"><g fill="rgb(0,0,0)" fill-opacity="1.0"><path d="" /></g></g><g fill="rgb(0,0,0)" fill-opacity="1.0"><g fill="rgb(0,0,0)" fill-opacity="1.0"><path d="" /></g></g></g><g stroke-width="0.0"><g fill="rgb(0,0,0)" fill-opacity="1.0"><g fill="rgb(0,0,0)" fill-opacity="1.0"><path d="M -2.44345290415207,0.9223465311779623 l 9.877710430388406e-2,-0.16255283311231014 l -7.82087142756354e-3,8.427790928003454e-2 l 8.450228118244396e-2,4.826644534600459e-3 Z" /></g></g><g fill="rgb(0,0,0)" fill-opacity="1.0"><g fill="rgb(0,0,0)" fill-opacity="1.0"><path d="M -2.352496671275749,0.8440716073456866 l 1.3305661203748586e-3,-1.433821433105625e-2 l 1.30458206387126e-2,1.5159372146053418e-2 l -1.4376386759087458e-2,-8.211578149971673e-4 Z" /></g></g></g></g></g><g><g><g stroke-width="2.0e-2"><path d="M 1.4346388591669896,-2.1823587132698057 l -1.0977459192344021,4.649068536684341 " /></g><g stroke-width="0.0"><g fill="rgb(0,0,0)" fill-opacity="1.0"><g fill="rgb(0,0,0)" fill-opacity="1.0"><path d="" /></g></g><g fill="rgb(0,0,0)" fill-opacity="1.0"><g fill="rgb(0,0,0)" fill-opacity="1.0"><path d="" /></g></g></g><g stroke-width="0.0"><g fill="rgb(0,0,0)" fill-opacity="1.0"><g fill="rgb(0,0,0)" fill-opacity="1.0"><path d="M 0.30693561497697786,2.593582221165271 l -1.563380198497287e-2,-0.18956772964561666 l 4.321009427319844e-2,7.277925374309299e-2 l 7.120081201549873e-2,-4.576435720988358e-2 Z" /></g></g><g fill="rgb(0,0,0)" fill-opacity="1.0"><g fill="rgb(0,0,0)" fill-opacity="1.0"><path d="M 0.3345119072652034,2.4767937452627473 l -7.351340324492821e-3,-1.2381946205564053e-2 l 1.946474598375394e-2,4.596048714704261e-3 l -1.211340565926112e-2,7.785897490859792e-3 Z" /></g></g></g></g></g><g><g><g stroke-width="2.0e-2"><path d="M 1.6194674144647248,-2.197591812755276 l 1.032249272109383,2.4659110485612006 " /></g><g stroke-width="0.0"><g fill="rgb(0,0,0)" fill-opacity="1.0"><g fill="rgb(0,0,0)" fill-opacity="1.0"><path d="" /></g></g><g fill="rgb(0,0,0)" fill-opacity="1.0"><g fill="rgb(0,0,0)" fill-opacity="1.0"><path d="" /></g></g></g><g stroke-width="0.0"><g fill="rgb(0,0,0)" fill-opacity="1.0"><g fill="rgb(0,0,0)" fill-opacity="1.0"><path d="M 2.702054425900845,0.38856963551000157 l -0.12407312728996064,-0.14417419662334924 l 7.773627261887343e-2,3.348139695150726e-2 l 3.070305268458295e-2,-7.887492997364837e-2 Z" /></g></g><g fill="rgb(0,0,0)" fill-opacity="1.0"><g fill="rgb(0,0,0)" fill-opacity="1.0"><path d="M 2.655717571229758,0.2778768358381596 l -1.3225284628303847e-2,-5.696195476311032e-3 l 1.8448799945306998e-2,-7.722809111847868e-3 l -5.22351531700315e-3,1.34190045881589e-2 Z" /></g></g></g></g></g><g><g><g stroke-width="2.0e-2"><path d="M 1.2045940428351924,-2.4497369302265426 l -2.66432658213011,0.21972913998386864 " /></g><g stroke-width="0.0"><g fill="rgb(0,0,0)" fill-opacity="1.0"><g fill="rgb(0,0,0)" fill-opacity="1.0"><path d="" /></g></g><g fill="rgb(0,0,0)" fill-opacity="1.0"><g fill="rgb(0,0,0)" fill-opacity="1.0"><path d="" /></g></g></g><g stroke-width="0.0"><g fill="rgb(0,0,0)" fill-opacity="1.0"><g fill="rgb(0,0,0)" fill-opacity="1.0"><path d="M -1.5896526824311379,-2.219293172331577 l 0.17545851405935609,-7.344827929626187e-2 l -5.58645300650798e-2,6.358526797229062e-2 l 6.552675106411975e-2,5.3574032118938866e-2 Z" /></g></g><g fill="rgb(0,0,0)" fill-opacity="1.0"><g fill="rgb(0,0,0)" fill-opacity="1.0"><path d="M -1.4700586984368615,-2.2291561836555482 l 9.50424153161339e-3,-1.0817771919982016e-2 l 1.6438352206618741e-3,1.9932330665712712e-2 l -1.1148076752275264e-2,-9.114558745730696e-3 Z" /></g></g></g></g></g><g><g><g stroke-width="2.0e-2"><path d="M -1.7727815195855334,-1.9178303353555852 l 1.8445508399411237,4.406395256300956 " /></g><g stroke-width="0.0"><g fill="rgb(0,0,0)" fill-opacity="1.0"><g fill="rgb(0,0,0)" fill-opacity="1.0"><path d="" /></g></g><g fill="rgb(0,0,0)" fill-opacity="1.0"><g fill="rgb(0,0,0)" fill-opacity="1.0"><path d="" /></g></g></g><g stroke-width="0.0"><g fill="rgb(0,0,0)" fill-opacity="1.0"><g fill="rgb(0,0,0)" fill-opacity="1.0"><path d="M 0.12210705968139335,2.6088153206498386 l -0.12407312728884021,-0.14417419662431347 l 7.773627261861324e-2,3.3481396952111386e-2 l 3.0703052685195926e-2,-7.887492997340977e-2 Z" /></g></g><g fill="rgb(0,0,0)" fill-opacity="1.0"><g fill="rgb(0,0,0)" fill-opacity="1.0"><path d="M 7.577020501116638e-2,2.4981225209776365 l -1.3225284628259577e-2,-5.696195476413811e-3 l 1.8448799945367012e-2,-7.722809111704493e-3 l -5.223515317107435e-3,1.3419004588118304e-2 Z" /></g></g></g></g></g><g><g><g stroke-width="2.0e-2"><path d="M -1.632239278196979,-2.038821078331341 l 4.082345964609922,2.4806846206842623 " /></g><g stroke-width="0.0"><g fill="rgb(0,0,0)" fill-opacity="1.0"><g fill="rgb(0,0,0)" fill-opacity="1.0"><path d="" /></g></g><g fill="rgb(0,0,0)" fill-opacity="1.0"><g fill="rgb(0,0,0)" fill-opacity="1.0"><path d="" /></g></g></g><g stroke-width="0.0"><g fill="rgb(0,0,0)" fill-opacity="1.0"><g fill="rgb(0,0,0)" fill-opacity="1.0"><path d="M 2.5615121845144415,0.5095603784848547 l -0.18512073505876983,-4.3711020793384556e-2 l 8.2569836982438e-2,-1.8605215483670882e-2 l -2.152222921239401e-2,-8.185796034735648e-2 Z" /></g></g><g fill="rgb(0,0,0)" fill-opacity="1.0"><g fill="rgb(0,0,0)" fill-opacity="1.0"><path d="M 2.4589612864381096,0.4472441422077993 l -1.4047619714921408e-2,3.1653083181497057e-3 l 1.0386039379509238e-2,-1.7091816346055305e-2 l 3.6615803354121687e-3,1.3926508027905599e-2 Z" /></g></g></g></g></g><g><g><g stroke-width="2.0e-2"><path d="M -1.9576100748797232,-1.902597235870689 l -0.6143236925690057,2.6017249533618547 " /></g><g stroke-width="0.0"><g fill="rgb(0,0,0)" fill-opacity="1.0"><g fill="rgb(0,0,0)" fill-opacity="1.0"><path d="" /></g></g><g fill="rgb(0,0,0)" fill-opacity="1.0"><g fill="rgb(0,0,0)" fill-opacity="1.0"><path d="" /></g></g></g><g stroke-width="0.0"><g fill="rgb(0,0,0)" fill-opacity="1.0"><g fill="rgb(0,0,0)" fill-opacity="1.0"><path d="M -2.6018910924037324,0.8260001152420444 l -1.563380198587811e-2,-0.189567729645542 l 4.321009427354598e-2,7.277925374288664e-2 l 7.120081201528018e-2,-4.576435721022359e-2 Z" /></g></g><g fill="rgb(0,0,0)" fill-opacity="1.0"><g fill="rgb(0,0,0)" fill-opacity="1.0"><path d="M -2.5743148001160647,0.709211639339389 l -7.351340324551949e-3,-1.2381946205528948e-2 l 1.946474598377589e-2,4.596048714611311e-3 l -1.211340565922394e-2,7.785897490917636e-3 Z" /></g></g></g></g></g><g><g><g stroke-width="2.0e-2"><path d="M -1.5896526824311383,-2.219293172331577 l 2.66432658213011,-0.2197291399838687 " /></g><g stroke-width="0.0"><g fill="rgb(0,0,0)" fill-opacity="1.0"><g fill="rgb(0,0,0)" fill-opacity="1.0"><path d="" /></g></g><g fill="rgb(0,0,0)" fill-opacity="1.0"><g fill="rgb(0,0,0)" fill-opacity="1.0"><path d="" /></g></g></g><g stroke-width="0.0"><g fill="rgb(0,0,0)" fill-opacity="1.0"><g fill="rgb(0,0,0)" fill-opacity="1.0"><path d="M 1.204594042835192,-2.4497369302265426 l -0.17545851405935609,7.344827929626187e-2 l 5.58645300650798e-2,-6.358526797229062e-2 l -6.552675106411975e-2,-5.357403211893886e-2 Z" /></g></g><g fill="rgb(0,0,0)" fill-opacity="1.0"><g fill="rgb(0,0,0)" fill-opacity="1.0"><path d="M 1.0850000588409157,-2.4398739189025713 l -9.50424153161339e-3,1.0817771919982018e-2 l -1.6438352206618748e-3,-1.9932330665712712e-2 l 1.1148076752275264e-2,9.114558745730694e-3 Z" /></g></g></g></g></g><g><g><g stroke-width="2.0e-2"><path d="M 2.590532216829186,0.861064273505142 l -2.0263487042845347,1.743830911506986 " /></g><g stroke-width="0.0"><g fill="rgb(0,0,0)" fill-opacity="1.0"><g fill="rgb(0,0,0)" fill-opacity="1.0"><path d="" /></g></g><g fill="rgb(0,0,0)" fill-opacity="1.0"><g fill="rgb(0,0,0)" fill-opacity="1.0"><path d="" /></g></g></g><g stroke-width="0.0"><g fill="rgb(0,0,0)" fill-opacity="1.0"><g fill="rgb(0,0,0)" fill-opacity="1.0"><path d="M 0.4653738032281901,2.689928637101957 l 9.877710430466773e-2,-0.16255283311183394 l -7.820871427969847e-3,8.427790927999683e-2 l 8.450228118242069e-2,4.826644535007842e-3 Z" /></g></g><g fill="rgb(0,0,0)" fill-opacity="1.0"><g fill="rgb(0,0,0)" fill-opacity="1.0"><path d="M 0.556330036104888,2.61165371327012 l 1.330566120443982e-3,-1.4338214331049835e-2 l 1.3045820638639516e-2,1.5159372146116313e-2 l -1.4376386759083499e-2,-8.211578150664764e-4 Z" /></g></g></g></g></g><g><g><g stroke-width="2.0e-2"><path d="M 2.5189255887487896,0.6900324724874104 l -4.760851721683382,0.392631241797276 " /></g><g stroke-width="0.0"><g fill="rgb(0,0,0)" fill-opacity="1.0"><g fill="rgb(0,0,0)" fill-opacity="1.0"><path d="" /></g></g><g fill="rgb(0,0,0)" fill-opacity="1.0"><g fill="rgb(0,0,0)" fill-opacity="1.0"><path d="" /></g></g></g><g stroke-width="0.0"><g fill="rgb(0,0,0)" fill-opacity="1.0"><g fill="rgb(0,0,0)" fill-opacity="1.0"><path d="M -2.3718462760707304,1.0933783321967907 l 0.17545851405878654,-7.34482792976224e-2 l -5.586453006458674e-2,6.35852679727238e-2 l 6.552675106453516e-2,5.357403211843075e-2 Z" /></g></g><g fill="rgb(0,0,0)" fill-opacity="1.0"><g fill="rgb(0,0,0)" fill-opacity="1.0"><path d="M -2.2522522920765304,1.0835153208718922 l 9.504241531529506e-3,-1.0817771920055714e-2 l 1.643835220816434e-3,1.9932330665699965e-2 l -1.114807675234594e-2,-9.114558745644251e-3 Z" /></g></g></g></g></g><g><g><g stroke-width="2.0e-2"><path d="M 2.5615121845144415,0.5095603784848554 l -4.082345964609921,-2.480684620684263 " /></g><g stroke-width="0.0"><g fill="rgb(0,0,0)" fill-opacity="1.0"><g fill="rgb(0,0,0)" fill-opacity="1.0"><path d="" /></g></g><g fill="rgb(0,0,0)" fill-opacity="1.0"><g fill="rgb(0,0,0)" fill-opacity="1.0"><path d="" /></g></g></g><g stroke-width="0.0"><g fill="rgb(0,0,0)" fill-opacity="1.0"><g fill="rgb(0,0,0)" fill-opacity="1.0"><path d="M -1.6322392781969781,-2.038821078331341 l 0.1851207350587698,4.371102079338461e-2 l -8.2569836982438e-2,1.8605215483670855e-2 l 2.152222921239398e-2,8.185796034735648e-2 Z" /></g></g><g fill="rgb(0,0,0)" fill-opacity="1.0"><g fill="rgb(0,0,0)" fill-opacity="1.0"><path d="M -1.5296883801206462,-1.9765048420542857 l 1.4047619714921406e-2,-3.1653083181497014e-3 l -1.0386039379509243e-2,1.7091816346055298e-2 l -3.6615803354121627e-3,-1.3926508027905599e-2 Z" /></g></g></g></g></g><g><g><g stroke-width="2.0e-2"><path d="M 2.702054425900845,0.3885696355100015 l -1.0322492721093828,-2.4659110485611997 " /></g><g stroke-width="0.0"><g fill="rgb(0,0,0)" fill-opacity="1.0"><g fill="rgb(0,0,0)" fill-opacity="1.0"><path d="" /></g></g><g fill="rgb(0,0,0)" fill-opacity="1.0"><g fill="rgb(0,0,0)" fill-opacity="1.0"><path d="" /></g></g></g><g stroke-width="0.0"><g fill="rgb(0,0,0)" fill-opacity="1.0"><g fill="rgb(0,0,0)" fill-opacity="1.0"><path d="M 1.619467414464725,-2.197591812755275 l 0.12407312728996064,0.14417419662334924 l -7.773627261887343e-2,-3.348139695150726e-2 l -3.0703052684582958e-2,7.887492997364837e-2 Z" /></g></g><g fill="rgb(0,0,0)" fill-opacity="1.0"><g fill="rgb(0,0,0)" fill-opacity="1.0"><path d="M 1.6658042691358121,-2.0868990130834333 l 1.3225284628303847e-2,5.696195476311033e-3 l -1.8448799945306998e-2,7.722809111847866e-3 l 5.223515317003152e-3,-1.3419004588158898e-2 Z" /></g></g></g></g></g><g><g><g stroke-width="2.0e-2"><path d="M -1.8435181707165665e-2,2.729806063625601 l -2.2845921920277106,-1.3882588012943333 " /></g><g stroke-width="0.0"><g fill="rgb(0,0,0)" fill-opacity="1.0"><g fill="rgb(0,0,0)" fill-opacity="1.0"><path d="" /></g></g><g fill="rgb(0,0,0)" fill-opacity="1.0"><g fill="rgb(0,0,0)" fill-opacity="1.0"><path d="" /></g></g></g><g stroke-width="0.0"><g fill="rgb(0,0,0)" fill-opacity="1.0"><g fill="rgb(0,0,0)" fill-opacity="1.0"><path d="M -2.4144328718363766,1.2738504261993375 l 0.18512073505877105,4.3711020793379345e-2 l -8.256983698243747e-2,1.8605215483673207e-2 l 2.1522229212396306e-2,8.185796034735586e-2 Z" /></g></g><g fill="rgb(0,0,0)" fill-opacity="1.0"><g fill="rgb(0,0,0)" fill-opacity="1.0"><path d="M -2.311881973760043,1.3361666624763902 l 1.4047619714921314e-2,-3.1653083181501004e-3 l -1.0386039379508756e-2,1.7091816346055593e-2 l -3.661580335412559e-3,-1.3926508027905495e-2 Z" /></g></g></g></g></g><g><g><g stroke-width="2.0e-2"><path d="M 0.46537380322818983,2.689928637101957 l 2.0263487042845347,-1.743830911506986 " /></g><g stroke-width="0.0"><g fill="rgb(0,0,0)" fill-opacity="1.0"><g fill="rgb(0,0,0)" fill-opacity="1.0"><path d="" /></g></g><g fill="rgb(0,0,0)" fill-opacity="1.0"><g fill="rgb(0,0,0)" fill-opacity="1.0"><path d="" /></g></g></g><g stroke-width="0.0"><g fill="rgb(0,0,0)" fill-opacity="1.0"><g fill="rgb(0,0,0)" fill-opacity="1.0"><path d="M 2.5905322168291858,0.8610642735051423 l -9.877710430466773e-2,0.16255283311183394 l 7.820871427969847e-3,-8.427790927999683e-2 l -8.450228118242069e-2,-4.826644535007842e-3 Z" /></g></g><g fill="rgb(0,0,0)" fill-opacity="1.0"><g fill="rgb(0,0,0)" fill-opacity="1.0"><path d="M 2.499575983952488,0.9393391973369793 l -1.330566120443982e-3,1.4338214331049835e-2 l -1.3045820638639516e-2,-1.5159372146116313e-2 l 1.4376386759083499e-2,8.211578150664764e-4 Z" /></g></g></g></g></g><g><g><g stroke-width="2.0e-2"><path d="M 0.12210705968139342,2.608815320649839 l -1.8445508399411228,-4.406395256300956 " /></g><g stroke-width="0.0"><g fill="rgb(0,0,0)" fill-opacity="1.0"><g fill="rgb(0,0,0)" fill-opacity="1.0"><path d="" /></g></g><g fill="rgb(0,0,0)" fill-opacity="1.0"><g fill="rgb(0,0,0)" fill-opacity="1.0"><path d="" /></g></g></g><g stroke-width="0.0"><g fill="rgb(0,0,0)" fill-opacity="1.0"><g fill="rgb(0,0,0)" fill-opacity="1.0"><path d="M -1.7727815195855325,-1.917830335355585 l 0.12407312728884012,0.14417419662431352 l -7.773627261861321e-2,-3.348139695211143e-2 l -3.0703052685195974e-2,7.887492997340974e-2 Z" /></g></g><g fill="rgb(0,0,0)" fill-opacity="1.0"><g fill="rgb(0,0,0)" fill-opacity="1.0"><path d="M -1.7264446649153056,-1.807137535683383 l 1.3225284628259573e-2,5.696195476413821e-3 l -1.844879994536702e-2,7.722809111704481e-3 l 5.223515317107444e-3,-1.3419004588118302e-2 Z" /></g></g></g></g></g><g><g><g stroke-width="2.0e-2"><path d="M 0.30693561497697786,2.5935822211652706 l 1.097745919234403,-4.649068536684341 " /></g><g stroke-width="0.0"><g fill="rgb(0,0,0)" fill-opacity="1.0"><g fill="rgb(0,0,0)" fill-opacity="1.0"><path d="" /></g></g><g fill="rgb(0,0,0)" fill-opacity="1.0"><g fill="rgb(0,0,0)" fill-opacity="1.0"><path d="" /></g></g></g><g stroke-width="0.0"><g fill="rgb(0,0,0)" fill-opacity="1.0"><g fill="rgb(0,0,0)" fill-opacity="1.0"><path d="M 1.4346388591669907,-2.182358713269806 l 1.56338019849728e-2,0.18956772964561666 l -4.321009427319841e-2,-7.2779253743093e-2 l -7.120081201549874e-2,4.576435720988356e-2 Z" /></g></g><g fill="rgb(0,0,0)" fill-opacity="1.0"><g fill="rgb(0,0,0)" fill-opacity="1.0"><path d="M 1.407062566878765,-2.0655702373672824 l 7.351340324492816e-3,1.2381946205564055e-2 l -1.9464745983753938e-2,-4.596048714704268e-3 l 1.2113405659261122e-2,-7.785897490859787e-3 Z" /></g></g></g></g></g><g><g><g stroke-width="2.0e-2"><path d="M -2.414432871836377,1.273850426199338 l 2.284592192027711,1.3882588012943333 " /></g><g stroke-width="0.0"><g fill="rgb(0,0,0)" fill-opacity="1.0"><g fill="rgb(0,0,0)" fill-opacity="1.0"><path d="" /></g></g><g fill="rgb(0,0,0)" fill-opacity="1.0"><g fill="rgb(0,0,0)" fill-opacity="1.0"><path d="" /></g></g></g><g stroke-width="0.0"><g fill="rgb(0,0,0)" fill-opacity="1.0"><g fill="rgb(0,0,0)" fill-opacity="1.0"><path d="M -1.84351817071656e-2,2.7298060636256016 l -0.18512073505877105,-4.3711020793379345e-2 l 8.256983698243747e-2,-1.8605215483673207e-2 l -2.1522229212396306e-2,-8.185796034735586e-2 Z" /></g></g><g fill="rgb(0,0,0)" fill-opacity="1.0"><g fill="rgb(0,0,0)" fill-opacity="1.0"><path d="M -0.12098607978349918,2.667489827348549 l -1.4047619714921314e-2,3.1653083181501004e-3 l 1.0386039379508756e-2,-1.7091816346055593e-2 l 3.661580335412559e-3,1.3926508027905495e-2 Z" /></g></g></g></g></g><g><g><g stroke-width="2.0e-2"><path d="M -2.37184627607073,1.09337833219679 l 4.760851721683381,-0.39263124179727527 " /></g><g stroke-width="0.0"><g fill="rgb(0,0,0)" fill-opacity="1.0"><g fill="rgb(0,0,0)" fill-opacity="1.0"><path d="" /></g></g><g fill="rgb(0,0,0)" fill-opacity="1.0"><g fill="rgb(0,0,0)" fill-opacity="1.0"><path d="" /></g></g></g><g stroke-width="0.0"><g fill="rgb(0,0,0)" fill-opacity="1.0"><g fill="rgb(0,0,0)" fill-opacity="1.0"><path d="M 2.518925588748789,0.6900324724874104 l -0.17545851405878654,7.344827929762239e-2 l 5.586453006458675e-2,-6.358526797272379e-2 l -6.552675106453516e-2,-5.357403211843076e-2 Z" /></g></g><g fill="rgb(0,0,0)" fill-opacity="1.0"><g fill="rgb(0,0,0)" fill-opacity="1.0"><path d="M 2.399331604754589,0.699895483812309 l -9.504241531529508e-3,1.0817771920055714e-2 l -1.6438352208164315e-3,-1.9932330665699965e-2 l 1.1148076752345939e-2,9.114558745644251e-3 Z" /></g></g></g></g></g><g><g><g stroke-width="2.0e-2"><path d="M -2.6018910924037333,0.8260001152420441 l 0.614323692569006,-2.6017249533618547 " /></g><g stroke-width="0.0"><g fill="rgb(0,0,0)" fill-opacity="1.0"><g fill="rgb(0,0,0)" fill-opacity="1.0"><path d="" /></g></g><g fill="rgb(0,0,0)" fill-opacity="1.0"><g fill="rgb(0,0,0)" fill-opacity="1.0"><path d="" /></g></g></g><g stroke-width="0.0"><g fill="rgb(0,0,0)" fill-opacity="1.0"><g fill="rgb(0,0,0)" fill-opacity="1.0"><path d="M -1.9576100748797234,-1.9025972358706895 l 1.563380198587809e-2,0.189567729645542 l -4.3210094273545975e-2,-7.277925374288666e-2 l -7.120081201528018e-2,4.576435721022358e-2 Z" /></g></g><g fill="rgb(0,0,0)" fill-opacity="1.0"><g fill="rgb(0,0,0)" fill-opacity="1.0"><path d="M -1.9851863671673913,-1.7858087599680341 l 7.351340324551947e-3,1.238194620552895e-2 l -1.946474598377589e-2,-4.596048714611314e-3 l 1.2113405659223942e-2,-7.785897490917635e-3 Z" /></g></g></g></g></g><g><g><g stroke-width="2.0e-2"><path d="M -2.4434529041520707,0.9223465311779628 l 3.620843865752741,-3.1160182082930543 " /></g><g stroke-width="0.0"><g fill="rgb(0,0,0)" fill-opacity="1.0"><g fill="rgb(0,0,0)" fill-opacity="1.0"><path d="" /></g></g><g fill="rgb(0,0,0)" fill-opacity="1.0"><g fill="rgb(0,0,0)" fill-opacity="1.0"><path d="" /></g></g></g><g stroke-width="0.0"><g fill="rgb(0,0,0)" fill-opacity="1.0"><g fill="rgb(0,0,0)" fill-opacity="1.0"><path d="M 1.2762006709167217,-2.2787051292053966 l -9.877710430388409e-2,0.1625528331123101 l 7.820871427563554e-3,-8.427790928003454e-2 l -8.450228118244396e-2,-4.826644534600473e-3 Z" /></g></g><g fill="rgb(0,0,0)" fill-opacity="1.0"><g fill="rgb(0,0,0)" fill-opacity="1.0"><path d="M 1.1852444380404012,-2.200430205373121 l -1.3305661203748603e-3,1.433821433105625e-2 l -1.3045820638712598e-2,-1.515937214605342e-2 l 1.4376386759087458e-2,8.211578149971699e-4 Z" /></g></g></g></g></g></g></g></g></g></svg>