<?xml version="1.0" encoding="UTF-8"?>
<!DOCTYPE svg PUBLIC "-//W3C//DTD SVG 1.1//EN"
    "http://www.w3.org/Graphics/SVG/1.1/DTD/svg11.dtd">
<svg xmlns="http://www.w3.org/2000/svg" xmlns:xlink="http://www.w3.org/1999/xlink" version="1.1" width="180.0" height="177.63737390203644" font-size="1" viewBox="0 0 180 178"><g><g fill="rgb(0,0,0)" fill-opacity="0.0"><g stroke="rgb(0,0,0)" stroke-opacity="1.0" stroke-width="1.0e-2" stroke-linecap="butt" stroke-linejoin="miter" font-size="1.0em" stroke-miterlimit="10.0"><g transform="matrix(3.0993862723297907,0.0,0.0,3.0993862723297907,90.91950054910245,85.50618158470196)"><g><g fill="rgb(0,128,0)" fill-opacity="1.0"><g fill="rgb(0,128,0)" fill-opacity="1.0"><g fill="rgb(0,128,0)" fill-opacity="1.0"><path d="M 24.573472706120782,16.05723520892015 c -2.55351295663786e-16,-1.2702549246108243 -1.029745075389175,-2.2999999999999994 -2.2999999999999994 -2.3c -1.2702549246108243,1.7757318308115695e-16 -2.2999999999999994,1.0297450753891748 -2.3 2.299999999999999c 9.979507049852795e-17,1.2702549246108243 1.0297450753891748,2.2999999999999994 2.299999999999999 2.3c 1.2702549246108243,-2.2016957915898927e-17 2.2999999999999994,-1.0297450753891746 2.3000000000000007 -2.299999999999999Z" /></g></g></g><g fill="rgb(255,255,255)" fill-opacity="1.0"><g fill="rgb(255,255,255)" fill-opacity="1.0"><text transform="matrix(2.3,0.0,0.0,2.3,22.27347270612078,16.05723520892015)" dominant-baseline="middle" text-anchor="middle" stroke="none">7</text></g></g></g><g><g fill="rgb(0,128,0)" fill-opacity="1.0"><g fill="rgb(0,128,0)" fill-opacity="1.0"><g fill="rgb(0,128,0)" fill-opacity="1.0"><path d="M 3.6332311088608815,27.42562443727932 c -2.55351295663786e-16,-1.2702549246108243 -1.029745075389175,-2.2999999999999994 -2.2999999999999994 -2.3c -1.2702549246108243,1.7757318308115695e-16 -2.2999999999999994,1.0297450753891748 -2.3 2.299999999999999c 9.979507049852795e-17,1.2702549246108243 1.0297450753891748,2.2999999999999994 2.299999999999999 2.3c 1.2702549246108243,-2.2016957915898927e-17 2.2999999999999994,-1.0297450753891746 2.3000000000000007 -2.299999999999999Z" /></g></g></g><g fill="rgb(255,255,255)" fill-opacity="1.0"><g fill="rgb(255,255,255)" fill-opacity="1.0"><text transform="matrix(2.3,0.0,0.0,2.3,1.3332311088608815,27.42562443727932)" dominant-baseline="middle" text-anchor="middle" stroke="none">6</text></g></g></g><g><g fill="rgb(0,128,0)" fill-opacity="1.0"><g fill="rgb(0,128,0)" fill-opacity="1.0"><g fill="rgb(0,128,0)" fill-opacity="1.0"><path d="M -18.310960773769434,18.14195903059443 c -2.55351295663786e-16,-1.2702549246108243 -1.029745075389175,-2.2999999999999994 -2.2999999999999994 -2.3c -1.2702549246108243,1.7757318308115695e-16 -2.2999999999999994,1.0297450753891748 -2.3 2.299999999999999c 9.979507049852795e-17,1.2702549246108243 1.0297450753891748,2.2999999999999994 2.299999999999999 2.3c 1.2702549246108243,-2.2016957915898927e-17 2.2999999999999994,-1.0297450753891746 2.3000000000000007 -2.299999999999999Z" /></g></g></g><g fill="rgb(255,255,255)" fill-opacity="1.0"><g fill="rgb(255,255,255)" fill-opacity="1.0"><text transform="matrix(2.3,0.0,0.0,2.3,-20.610960773769435,18.14195903059443)" dominant-baseline="middle" text-anchor="middle" stroke="none">5</text></g></g></g><g><g fill="rgb(0,128,0)" fill-opacity="1.0"><g fill="rgb(0,128,0)" fill-opacity="1.0"><g fill="rgb(0,128,0)" fill-opacity="1.0"><path d="M -24.734678726817354,-4.802971534294901 c -2.55351295663786e-16,-1.2702549246108243 -1.029745075389175,-2.2999999999999994 -2.2999999999999994 -2.3c -1.2702549246108243,1.7757318308115695e-16 -2.2999999999999994,1.0297450753891748 -2.3 2.299999999999999c 9.979507049852795e-17,1.2702549246108243 1.0297450753891748,2.2999999999999994 2.299999999999999 2.3c 1.2702549246108243,-2.2016957915898927e-17 2.2999999999999994,-1.0297450753891746 2.3000000000000007 -2.299999999999999Z" /></g></g></g><g fill="rgb(255,255,255)" fill-opacity="1.0"><g fill="rgb(255,255,255)" fill-opacity="1.0"><text transform="matrix(2.3,0.0,0.0,2.3,-27.034678726817354,-4.802971534294901)" dominant-baseline="middle" text-anchor="middle" stroke="none">4</text></g></g></g><g><g fill="rgb(0,128,0)" fill-opacity="1.0"><g fill="rgb(0,128,0)" fill-opacity="1.0"><g fill="rgb(0,128,0)" fill-opacity="1.0"><path d="M -10.800732274067958,-24.13116655008138 c -2.55351295663786e-16,-1.2702549246108243 -1.029745075389175,-2.2999999999999994 -2.2999999999999994 -2.3c -1.2702549246108243,1.7757318308115695e-16 -2.2999999999999994,1.0297450753891748 -2.3 2.299999999999999c 9.979507049852795e-17,1.2702549246108243 1.0297450753891748,2.2999999999999994 2.299999999999999 2.3c 1.2702549246108243,-2.2016957915898927e-17 2.2999999999999994,-1.0297450753891746 2.3000000000000007 -2.299999999999999Z" /></g></g></g><g fill="rgb(255,255,255)" fill-opacity="1.0"><g fill="rgb(255,255,255)" fill-opacity="1.0"><text transform="matrix(2.3,0.0,0.0,2.3,-13.100732274067957,-24.13116655008138)" dominant-baseline="middle" text-anchor="middle" stroke="none">3</text></g></g></g><g><g fill="rgb(0,128,0)" fill-opacity="1.0"><g fill="rgb(0,128,0)" fill-opacity="1.0"><g fill="rgb(0,128,0)" fill-opacity="1.0"><path d="M 12.998332861761508,-25.288101021182964 c -2.55351295663786e-16,-1.2702549246108243 -1.029745075389175,-2.2999999999999994 -2.2999999999999994 -2.3c -1.2702549246108243,1.7757318308115695e-16 -2.2999999999999994,1.0297450753891748 -2.3 2.299999999999999c 9.979507049852795e-17,1.2702549246108243 1.0297450753891748,2.2999999999999994 2.299999999999999 2.3c 1.2702549246108243,-2.2016957915898927e-17 2.2999999999999994,-1.0297450753891746 2.3000000000000007 -2.299999999999999Z" /></g></g></g><g fill="rgb(255,255,255)" fill-opacity="1.0"><g fill="rgb(255,255,255)" fill-opacity="1.0"><text transform="matrix(2.3,0.0,0.0,2.3,10.698332861761507,-25.288101021182964)" dominant-baseline="middle" text-anchor="middle" stroke="none">2</text></g></g></g><g><g fill="rgb(0,128,0)" fill-opacity="1.0"><g fill="rgb(0,128,0)" fill-opacity="1.0"><g fill="rgb(0,128,0)" fill-opacity="1.0"><path d="M 28.741335097911577,-7.402579571234653 c -2.55351295663786e-16,-1.2702549246108243 -1.029745075389175,-2.2999999999999994 -2.2999999999999994 -2.3c -1.2702549246108243,1.7757318308115695e-16 -2.2999999999999994,1.0297450753891748 -2.3 2.299999999999999c 9.979507049852795e-17,1.2702549246108243 1.0297450753891748,2.2999999999999994 2.299999999999999 2.3c 1.2702549246108243,-2.2016957915898927e-17 2.2999999999999994,-1.0297450753891746 2.3000000000000007 -2.299999999999999Z" /></g></g></g><g fill="rgb(255,255,255)" fill-opacity="1.0"><g fill="rgb(255,255,255)" fill-opacity="1.0"><text transform="matrix(2.3,0.0,0.0,2.3,26.441335097911576,-7.402579571234653)" dominant-baseline="middle" text-anchor="middle" stroke="none">1</text></g></g></g><g><g><g stroke-width="0.2"><path d="M 22.675857655685196,13.792314849338156 l 3.219025770587052,-18.119059904487326 " /></g><g stroke-width="0.0"><g fill="rgb(0,0,0)" fill-opacity="1.0"><g fill="rgb(0,0,0)" fill-opacity="1.0"><path d="" /></g></g><g fill="rgb(0,0,0)" fill-opacity="1.0"><g fill="rgb(0,0,0)" fill-opacity="1.0"><path d="" /></g></g></g><g stroke-width="0.0"><g fill="rgb(0,0,0)" fill-opacity="1.0"><g fill="rgb(0,0,0)" fill-opacity="1.0"><path d="M 26.03895014834717,-5.137659211652655 l 0.1573732716033136,1.1303653786872772 l -0.28331609392648405,-0.42146594611219446 l -0.41115162578374276,0.2980870567894432 Z" /></g></g><g fill="rgb(0,0,0)" fill-opacity="1.0"><g fill="rgb(0,0,0)" fill-opacity="1.0"><path d="M 25.913007326023997,-4.428759779077572 l 8.033435477256873e-2,0.1195067825843985 l -0.19691650904863411,-3.498411731199174e-2 l 0.1165821542760654,-8.452266527240676e-2 Z" /></g></g></g></g></g><g><g><g stroke-width="0.2"><path d="M 3.3549454953129962,26.32804225576483 l 16.172990474062317,-8.780264059596352 " /></g><g stroke-width="0.0"><g fill="rgb(0,0,0)" fill-opacity="1.0"><g fill="rgb(0,0,0)" fill-opacity="1.0"><path d="" /></g></g><g fill="rgb(0,0,0)" fill-opacity="1.0"><g fill="rgb(0,0,0)" fill-opacity="1.0"><path d="" /></g></g></g><g stroke-width="0.0"><g fill="rgb(0,0,0)" fill-opacity="1.0"><g fill="rgb(0,0,0)" fill-opacity="1.0"><path d="M 20.25175831966866,17.154817390434644 l -0.7856346122613169,0.8278106619070402 l 0.15287065162140875,-0.48428516050241865 l -0.4894026908080986,-0.13559704657476956 Z" /></g></g><g fill="rgb(0,0,0)" fill-opacity="1.0"><g fill="rgb(0,0,0)" fill-opacity="1.0"><path d="M 19.61899435902875,17.498342891839265 l -4.3346514458351464e-2,0.13731918775142662 l -9.542375039017272e-2,-0.17576776684441894 l 0.13877026484852417,3.844857909299231e-2 Z" /></g></g></g></g></g><g><g><g stroke-width="0.2"><path d="M -18.49217421352964,19.038328584718528 l 16.94809377834963,7.170026253910813 " /></g><g stroke-width="0.0"><g fill="rgb(0,0,0)" fill-opacity="1.0"><g fill="rgb(0,0,0)" fill-opacity="1.0"><path d="" /></g></g><g fill="rgb(0,0,0)" fill-opacity="1.0"><g fill="rgb(0,0,0)" fill-opacity="1.0"><path d="" /></g></g></g><g stroke-width="0.0"><g fill="rgb(0,0,0)" fill-opacity="1.0"><g fill="rgb(0,0,0)" fill-opacity="1.0"><path d="M -0.7855554513789086,26.529254883155218 l -1.1370436059591207,-9.810236540186901e-2 l 0.47394267684331126,-0.18242777167033603 l -0.19912354785226452,-0.46717380652251317 Z" /></g></g><g fill="rgb(0,0,0)" fill-opacity="1.0"><g fill="rgb(0,0,0)" fill-opacity="1.0"><path d="M -1.4486563804947181,26.248724746083013 l -0.13438657372309742,5.172744381241092e-2 l 7.792503807561246e-2,-0.18419470253216935 l 5.646153564748497e-2,0.13246725871975842 Z" /></g></g></g></g></g><g><g><g stroke-width="0.2"><path d="M -26.414449263301155,-2.5875688533715646 l 4.961216190062339,17.72100858574792 " /></g><g stroke-width="0.0"><g fill="rgb(0,0,0)" fill-opacity="1.0"><g fill="rgb(0,0,0)" fill-opacity="1.0"><path d="" /></g></g><g fill="rgb(0,0,0)" fill-opacity="1.0"><g fill="rgb(0,0,0)" fill-opacity="1.0"><path d="" /></g></g></g><g stroke-width="0.0"><g fill="rgb(0,0,0)" fill-opacity="1.0"><g fill="rgb(0,0,0)" fill-opacity="1.0"><path d="M -21.231190237285634,15.926556349671088 l -0.632235576765765,-0.9501423111416638 l 0.43812620137481467,0.25680144952644424 l 0.24109968740715618,-0.446959163170618 Z" /></g></g><g fill="rgb(0,0,0)" fill-opacity="1.0"><g fill="rgb(0,0,0)" fill-opacity="1.0"><path d="M -21.425299612676586,15.233215488055869 l -0.12423080245323159,-7.281612020854844e-2 l 0.19259468378200542,-5.391927094193073e-2 l -6.836388132877384e-2,0.12673539115047916 Z" /></g></g></g></g></g><g><g><g stroke-width="0.2"><path d="M -14.445853765273927,-22.265308188265696 l -10.762061371217156,14.928378091599713 " /></g><g stroke-width="0.0"><g fill="rgb(0,0,0)" fill-opacity="1.0"><g fill="rgb(0,0,0)" fill-opacity="1.0"><path d="" /></g></g><g fill="rgb(0,0,0)" fill-opacity="1.0"><g fill="rgb(0,0,0)" fill-opacity="1.0"><path d="" /></g></g></g><g stroke-width="0.0"><g fill="rgb(0,0,0)" fill-opacity="1.0"><g fill="rgb(0,0,0)" fill-opacity="1.0"><path d="M -25.68955723561139,-6.668829896110587 l 0.3486587408386754,-1.086705718392404 l 7.239175881330323e-2,0.5026539426543117 l 0.49976994177683287,-9.017515237796159e-2 Z" /></g></g><g fill="rgb(0,0,0)" fill-opacity="1.0"><g fill="rgb(0,0,0)" fill-opacity="1.0"><path d="M -25.26850673595941,-7.25288167184868 l -2.0526702717520787e-2,-0.14252766088007673 l 0.1622366043716924,0.11695847212554958 l -0.1417099016541716,2.5569188754527135e-2 Z" /></g></g></g></g></g><g><g><g stroke-width="0.2"><path d="M 8.400996707273505,-25.176421534040685 l -18.381752119651193,0.8935847918854819 " /></g><g stroke-width="0.0"><g fill="rgb(0,0,0)" fill-opacity="1.0"><g fill="rgb(0,0,0)" fill-opacity="1.0"><path d="" /></g></g><g fill="rgb(0,0,0)" fill-opacity="1.0"><g fill="rgb(0,0,0)" fill-opacity="1.0"><path d="" /></g></g></g><g stroke-width="0.0"><g fill="rgb(0,0,0)" fill-opacity="1.0"><g fill="rgb(0,0,0)" fill-opacity="1.0"><path d="M -10.803396119579956,-24.242846037223654 l 1.0670059122363893,-0.404957552346604 l -0.34785515395714783,0.36999776306817933 l 0.3821032348923323,0.3345125867509663 Z" /></g></g><g fill="rgb(0,0,0)" fill-opacity="1.0"><g fill="rgb(0,0,0)" fill-opacity="1.0"><path d="M -10.084245361300715,-24.277805826502078 l 9.863442263435702e-2,-0.10491296541413112 l 9.711052577340257e-3,0.19976409952201157 l -0.10834547521169728,-9.485113410788046e-2 Z" /></g></g></g></g></g><g><g><g stroke-width="0.2"><path d="M 24.921668375598077,-9.129062954200718 l -12.159494705723494,-13.814322078946407 " /></g><g stroke-width="0.0"><g fill="rgb(0,0,0)" fill-opacity="1.0"><g fill="rgb(0,0,0)" fill-opacity="1.0"><path d="" /></g></g><g fill="rgb(0,0,0)" fill-opacity="1.0"><g fill="rgb(0,0,0)" fill-opacity="1.0"><path d="" /></g></g></g><g stroke-width="0.0"><g fill="rgb(0,0,0)" fill-opacity="1.0"><g fill="rgb(0,0,0)" fill-opacity="1.0"><path d="M 12.217999584075004,-23.5616176382169 l 0.9818758703071115,0.5817319066877921 l -0.5061600407688368,-4.1274276963952417e-2 l -2.3294999632194974e-2,0.5073055251050826 Z" /></g></g><g fill="rgb(0,0,0)" fill-opacity="1.0"><g fill="rgb(0,0,0)" fill-opacity="1.0"><path d="M 12.69371541361328,-23.021160008493062 l 0.14352181594517083,1.1703332354510682e-2 l -0.15012711936773324,0.13214328598285421 l 6.605303422562381e-3,-0.14384661833736487 Z" /></g></g></g></g></g></g></g></g></g></svg>