<?xml version="1.0" encoding="UTF-8"?>
<!DOCTYPE svg PUBLIC "-//W3C//DTD SVG 1.1//EN"
    "http://www.w3.org/Graphics/SVG/1.1/DTD/svg11.dtd">
<svg xmlns="http://www.w3.org/2000/svg" xmlns:xlink="http://www.w3.org/1999/xlink" version="1.1" width="280.0" height="184.60155441367024" font-size="1" viewBox="0 0 280 185"><g><g fill="rgb(0,0,0)" fill-opacity="0.0"><g stroke="rgb(0,0,0)" stroke-opacity="1.0" stroke-width="1.0e-2" stroke-linecap="butt" stroke-linejoin="miter" font-size="1.0em" stroke-miterlimit="10.0"><g transform="matrix(21.070402949666057,0.0,0.0,21.070402949666057,140.31481784646652,92.50317468329982)"><g><g fill="rgb(0,128,0)" fill-opacity="1.0"><g fill="rgb(0,128,0)" fill-opacity="1.0"><g fill="rgb(0,128,0)" fill-opacity="1.0"><path d="M 6.629449967673605,4.07098331486015 c -3.3306690738754695e-17,-0.16568542494923796 -0.13431457505076197,-0.29999999999999993 -0.29999999999999993 -0.3c -0.16568542494923796,2.3161719532324822e-17 -0.29999999999999993,0.13431457505076194 -0.3 0.2999999999999999c 1.301674832589495e-17,0.16568542494923796 0.13431457505076191,0.29999999999999993 0.2999999999999999 0.3c 0.16568542494923796,-2.871777119465078e-18 0.29999999999999993,-0.13431457505076191 0.3 -0.2999999999999999Z" /></g></g></g><g fill="rgb(255,255,255)" fill-opacity="1.0"><g fill="rgb(255,255,255)" fill-opacity="1.0"><text transform="matrix(0.3,0.0,0.0,0.3,6.329449967673606,4.07098331486015)" dominant-baseline="middle" text-anchor="middle" stroke="none">5</text></g></g></g><g><g fill="rgb(0,128,0)" fill-opacity="1.0"><g fill="rgb(0,128,0)" fill-opacity="1.0"><g fill="rgb(0,128,0)" fill-opacity="1.0"><path d="M -6.059332438096081,-4.090194857890267 c -3.3306690738754695e-17,-0.16568542494923796 -0.13431457505076197,-0.29999999999999993 -0.29999999999999993 -0.3c -0.16568542494923796,2.3161719532324822e-17 -0.29999999999999993,0.13431457505076194 -0.3 0.2999999999999999c 1.301674832589495e-17,0.16568542494923796 0.13431457505076191,0.29999999999999993 0.2999999999999999 0.3c 0.16568542494923796,-2.871777119465078e-18 0.29999999999999993,-0.13431457505076191 0.3 -0.2999999999999999Z" /></g></g></g><g fill="rgb(255,255,255)" fill-opacity="1.0"><g fill="rgb(255,255,255)" fill-opacity="1.0"><text transform="matrix(0.3,0.0,0.0,0.3,-6.3593324380960805,-4.090194857890267)" dominant-baseline="middle" text-anchor="middle" stroke="none">4</text></g></g></g><g><g fill="rgb(0,128,0)" fill-opacity="1.0"><g fill="rgb(0,128,0)" fill-opacity="1.0"><g fill="rgb(0,128,0)" fill-opacity="1.0"><path d="M -0.9622421681048168,-0.8119095916127766 c -3.3306690738754695e-17,-0.16568542494923796 -0.13431457505076197,-0.29999999999999993 -0.29999999999999993 -0.3c -0.16568542494923796,2.3161719532324822e-17 -0.29999999999999993,0.13431457505076194 -0.3 0.2999999999999999c 1.301674832589495e-17,0.16568542494923796 0.13431457505076191,0.29999999999999993 0.2999999999999999 0.3c 0.16568542494923796,-2.871777119465078e-18 0.29999999999999993,-0.13431457505076191 0.3 -0.2999999999999999Z" /></g></g></g><g fill="rgb(255,255,255)" fill-opacity="1.0"><g fill="rgb(255,255,255)" fill-opacity="1.0"><text transform="matrix(0.3,0.0,0.0,0.3,-1.2622421681048168,-0.8119095916127766)" dominant-baseline="middle" text-anchor="middle" stroke="none">3</text></g></g></g><g><g fill="rgb(0,128,0)" fill-opacity="1.0"><g fill="rgb(0,128,0)" fill-opacity="1.0"><g fill="rgb(0,128,0)" fill-opacity="1.0"><path d="M 2.1038753713387885,-1.3845042286063571 c -3.3306690738754695e-17,-0.16568542494923796 -0.13431457505076197,-0.29999999999999993 -0.29999999999999993 -0.3c -0.16568542494923796,2.3161719532324822e-17 -0.29999999999999993,0.13431457505076194 -0.3 0.2999999999999999c 1.301674832589495e-17,0.16568542494923796 0.13431457505076191,0.29999999999999993 0.2999999999999999 0.3c 0.16568542494923796,-2.871777119465078e-18 0.29999999999999993,-0.13431457505076191 0.3 -0.2999999999999999Z" /></g></g></g><g fill="rgb(255,255,255)" fill-opacity="1.0"><g fill="rgb(255,255,255)" fill-opacity="1.0"><text transform="matrix(0.3,0.0,0.0,0.3,1.8038753713387887,-1.3845042286063571)" dominant-baseline="middle" text-anchor="middle" stroke="none">2</text></g></g></g><g><g fill="rgb(0,128,0)" fill-opacity="1.0"><g fill="rgb(0,128,0)" fill-opacity="1.0"><g fill="rgb(0,128,0)" fill-opacity="1.0"><path d="M -0.21175073281149664,2.21562536324925 c -3.3306690738754695e-17,-0.16568542494923796 -0.13431457505076197,-0.29999999999999993 -0.29999999999999993 -0.3c -0.16568542494923796,2.3161719532324822e-17 -0.29999999999999993,0.13431457505076194 -0.3 0.2999999999999999c 1.301674832589495e-17,0.16568542494923796 0.13431457505076191,0.29999999999999993 0.2999999999999999 0.3c 0.16568542494923796,-2.871777119465078e-18 0.29999999999999993,-0.13431457505076191 0.3 -0.2999999999999999Z" /></g></g></g><g fill="rgb(255,255,255)" fill-opacity="1.0"><g fill="rgb(255,255,255)" fill-opacity="1.0"><text transform="matrix(0.3,0.0,0.0,0.3,-0.5117507328114966,2.21562536324925)" dominant-baseline="middle" text-anchor="middle" stroke="none">1</text></g></g></g><g><g><g stroke-width="2.0e-2"><path d="M 6.039836771518869,3.9924391864385074 l -6.13615798541924,-1.6641478607375217 " /></g><g stroke-width="0.0"><g fill="rgb(0,0,0)" fill-opacity="1.0"><g fill="rgb(0,0,0)" fill-opacity="1.0"><path d="" /></g></g><g fill="rgb(0,0,0)" fill-opacity="1.0"><g fill="rgb(0,0,0)" fill-opacity="1.0"><path d="" /></g></g></g><g stroke-width="0.0"><g fill="rgb(0,0,0)" fill-opacity="1.0"><g fill="rgb(0,0,0)" fill-opacity="1.0"><path d="M -0.22213753665675873,2.294169491670893 l 0.1899799530211863,-9.378557328651026e-3 l -7.416361440947761e-2,4.078836010705182e-2 l 4.3393249658545734e-2,7.2670199577071e-2 Z" /></g></g><g fill="rgb(0,0,0)" fill-opacity="1.0"><g fill="rgb(0,0,0)" fill-opacity="1.0"><path d="M -0.10632119804505002,2.3255792944492937 l 1.2617467709546222e-2,-6.9393302992835455e-3 l -5.2349671297334645e-3,1.9302723101951445e-2 l -7.382500579812757e-3,-1.2363392802667898e-2 Z" /></g></g></g></g></g><g><g><g stroke-width="2.0e-2"><path d="M 6.137906290817127,3.8400813330506818 l -4.059256529556928,-4.893350658868363 " /></g><g stroke-width="0.0"><g fill="rgb(0,0,0)" fill-opacity="1.0"><g fill="rgb(0,0,0)" fill-opacity="1.0"><path d="" /></g></g><g fill="rgb(0,0,0)" fill-opacity="1.0"><g fill="rgb(0,0,0)" fill-opacity="1.0"><path d="" /></g></g></g><g stroke-width="0.0"><g fill="rgb(0,0,0)" fill-opacity="1.0"><g fill="rgb(0,0,0)" fill-opacity="1.0"><path d="M 1.9954190481952678,-1.153602246796889 l 0.16073798030967779,0.10170369498432488 l -8.412251233191372e-2,-9.345316552543108e-3 l -6.355642281167195e-3,8.44010535105697e-2 Z" /></g></g><g fill="rgb(0,0,0)" fill-opacity="1.0"><g fill="rgb(0,0,0)" fill-opacity="1.0"><path d="M 2.072034516173032,-1.061243868365107 l 1.4311776623149367e-2,1.5899202159452971e-3 l -1.5393063071963625e-2,1.2769244662960675e-2 l 1.0812864488142565e-3,-1.4359164878905973e-2 Z" /></g></g></g></g></g><g><g><g stroke-width="2.0e-2"><path d="M 6.077103954849497,3.908677134109155 l -6.977359615041849,-4.487760984093852 " /></g><g stroke-width="0.0"><g fill="rgb(0,0,0)" fill-opacity="1.0"><g fill="rgb(0,0,0)" fill-opacity="1.0"><path d="" /></g></g><g fill="rgb(0,0,0)" fill-opacity="1.0"><g fill="rgb(0,0,0)" fill-opacity="1.0"><path d="" /></g></g></g><g stroke-width="0.0"><g fill="rgb(0,0,0)" fill-opacity="1.0"><g fill="rgb(0,0,0)" fill-opacity="1.0"><path d="M -1.0098961552807086,-0.6496034108617829 l 0.18394418537872276,4.842392541767987e-2 l -8.301800643375959e-2,1.6490683135166467e-2 l 1.9424923824256396e-2,8.238084945496768e-2 Z" /></g></g><g fill="rgb(0,0,0)" fill-opacity="1.0"><g fill="rgb(0,0,0)" fill-opacity="1.0"><path d="M -0.9089699763357455,-0.5846888023089365 l 1.4123866856130488e-2,-2.8055625878413435e-3 l -1.0819101425474388e-2,1.682102982416053e-2 l -3.3047654306560996e-3,-1.4015467236319187e-2 Z" /></g></g></g></g></g><g><g><g stroke-width="2.0e-2"><path d="M -6.074489734740806,-3.99578390434361 l 7.469781137651959,2.4758547495982204 " /></g><g stroke-width="0.0"><g fill="rgb(0,0,0)" fill-opacity="1.0"><g fill="rgb(0,0,0)" fill-opacity="1.0"><path d="" /></g></g><g fill="rgb(0,0,0)" fill-opacity="1.0"><g fill="rgb(0,0,0)" fill-opacity="1.0"><path d="" /></g></g></g><g stroke-width="0.0"><g fill="rgb(0,0,0)" fill-opacity="1.0"><g fill="rgb(0,0,0)" fill-opacity="1.0"><path d="M 1.519032667983516,-1.4789151821530142 l -0.1902079984461545,-1.1212558167675857e-3 l 7.630179023809192e-2,-3.663289271900916e-2 l -3.9316237367776855e-2,-7.495442282974926e-2 Z" /></g></g><g fill="rgb(0,0,0)" fill-opacity="1.0"><g fill="rgb(0,0,0)" fill-opacity="1.0"><path d="M 1.4051264597754534,-1.5166693306887908 l -1.2981235908948131e-2,6.23235996073974e-3 l 6.292358089296123e-3,-1.8984368034677096e-2 l 6.688877819652009e-3,1.2752008073937355e-2 Z" /></g></g></g></g></g><g><g><g stroke-width="2.0e-2"><path d="M -6.106984008237959,-3.9278924273363827 l 4.48275186655524,2.8831624746820803 " /></g><g stroke-width="0.0"><g fill="rgb(0,0,0)" fill-opacity="1.0"><g fill="rgb(0,0,0)" fill-opacity="1.0"><path d="" /></g></g><g fill="rgb(0,0,0)" fill-opacity="1.0"><g fill="rgb(0,0,0)" fill-opacity="1.0"><path d="" /></g></g></g><g stroke-width="0.0"><g fill="rgb(0,0,0)" fill-opacity="1.0"><g fill="rgb(0,0,0)" fill-opacity="1.0"><path d="M -1.514590597962937,-0.9742120221666601 l -0.18394490543429518,-4.842119011617894e-2 l 8.301776120398888e-2,-1.649191763190956e-2 l -1.9426148845991073e-2,-8.238056059237284e-2 Z" /></g></g><g fill="rgb(0,0,0)" fill-opacity="1.0"><g fill="rgb(0,0,0)" fill-opacity="1.0"><path d="M -1.6155177421932434,-1.0391251299147486 l -1.4123825135149952e-2,2.805772612971826e-3 l 1.0818851291348082e-2,-1.682119070505105e-2 l 3.3049738438018696e-3,1.4015418092079224e-2 Z" /></g></g></g></g></g><g><g><g stroke-width="2.0e-2"><path d="M -6.155342793239477,-3.870219816536443 l 5.350961679424577,5.770283180509408 " /></g><g stroke-width="0.0"><g fill="rgb(0,0,0)" fill-opacity="1.0"><g fill="rgb(0,0,0)" fill-opacity="1.0"><path d="" /></g></g><g fill="rgb(0,0,0)" fill-opacity="1.0"><g fill="rgb(0,0,0)" fill-opacity="1.0"><path d="" /></g></g></g><g stroke-width="0.0"><g fill="rgb(0,0,0)" fill-opacity="1.0"><g fill="rgb(0,0,0)" fill-opacity="1.0"><path d="M -0.7157403776681,1.995650321895426 l -0.16610554040049544,-9.267841893212425e-2 l 8.45100423962613e-2,4.68879053513066e-3 l 1.688300814485108e-3,-8.46231745023786e-2 Z" /></g></g><g fill="rgb(0,0,0)" fill-opacity="1.0"><g fill="rgb(0,0,0)" fill-opacity="1.0"><path d="M -0.7973358756723341,1.9076606934984324 l -1.4377707175648964e-2,-7.977046917804573e-4 l 1.4664938066165598e-2,-1.3599249667372356e-2 l -2.8723089051663295e-4,1.4396954359152812e-2 Z" /></g></g></g></g></g><g><g><g stroke-width="2.0e-2"><path d="M -0.9672879348592511,-0.8669920240186824 l 2.348063263454543,-0.4384986598457978 " /></g><g stroke-width="0.0"><g fill="rgb(0,0,0)" fill-opacity="1.0"><g fill="rgb(0,0,0)" fill-opacity="1.0"><path d="" /></g></g><g fill="rgb(0,0,0)" fill-opacity="1.0"><g fill="rgb(0,0,0)" fill-opacity="1.0"><path d="" /></g></g></g><g stroke-width="0.0"><g fill="rgb(0,0,0)" fill-opacity="1.0"><g fill="rgb(0,0,0)" fill-opacity="1.0"><path d="M 1.5089211380932224,-1.3294217962004513 l -0.1670370981240209,9.098872313537079e-2 l 4.907642228054954e-2,-6.895967516339814e-2 l -7.065700481383111e-2,-4.659956752201095e-2 Z" /></g></g><g fill="rgb(0,0,0)" fill-opacity="1.0"><g fill="rgb(0,0,0)" fill-opacity="1.0"><path d="M 1.3909604622497511,-1.3073927482284786 l -8.349379656795103e-3,1.1732120684287743e-2 l -3.6715079953287726e-3,-1.9660112640578556e-2 l 1.2020887652123877e-2,7.927991956290813e-3 Z" /></g></g></g></g></g><g><g><g stroke-width="2.0e-2"><path d="M -1.1900433239808006,-0.5206544033364934 l 0.5747280127344538,2.3184930117315536 " /></g><g stroke-width="0.0"><g fill="rgb(0,0,0)" fill-opacity="1.0"><g fill="rgb(0,0,0)" fill-opacity="1.0"><path d="" /></g></g><g fill="rgb(0,0,0)" fill-opacity="1.0"><g fill="rgb(0,0,0)" fill-opacity="1.0"><path d="" /></g></g></g><g stroke-width="0.0"><g fill="rgb(0,0,0)" fill-opacity="1.0"><g fill="rgb(0,0,0)" fill-opacity="1.0"><path d="M -0.5839495769355129,1.924370174972966 l -0.10057787066221176,-0.16144482593305476 l 7.170511054521027e-2,4.497009166323088e-2 l 4.239844123560174e-2,-7.325506264615052e-2 Z" /></g></g><g fill="rgb(0,0,0)" fill-opacity="1.0"><g fill="rgb(0,0,0)" fill-opacity="1.0"><path d="M -0.6128223370525143,1.8078954407031422 l -1.2199202049651098e-2,-7.650768964998533e-3 l 1.9412455711637314e-2,-4.812126686166914e-3 l -7.213253661986215e-3,1.2462895651165446e-2 Z" /></g></g></g></g></g><g><g><g stroke-width="2.0e-2"><path d="M -1.5145905979629375,-0.9742120221666607 l -4.48275186655524,-2.8831624746820803 " /></g><g stroke-width="0.0"><g fill="rgb(0,0,0)" fill-opacity="1.0"><g fill="rgb(0,0,0)" fill-opacity="1.0"><path d="" /></g></g><g fill="rgb(0,0,0)" fill-opacity="1.0"><g fill="rgb(0,0,0)" fill-opacity="1.0"><path d="" /></g></g></g><g stroke-width="0.0"><g fill="rgb(0,0,0)" fill-opacity="1.0"><g fill="rgb(0,0,0)" fill-opacity="1.0"><path d="M -6.10698400823796,-3.927892427336383 l 0.18394490543429518,4.842119011617894e-2 l -8.301776120398888e-2,1.649191763190956e-2 l 1.9426148845991073e-2,8.238056059237284e-2 Z" /></g></g><g fill="rgb(0,0,0)" fill-opacity="1.0"><g fill="rgb(0,0,0)" fill-opacity="1.0"><path d="M -6.006056864007654,-3.8629793195882947 l 1.4123825135149952e-2,-2.805772612971826e-3 l -1.0818851291348082e-2,1.682119070505105e-2 l -3.3049738438018696e-3,-1.4015418092079224e-2 Z" /></g></g></g></g></g><g><g><g stroke-width="2.0e-2"><path d="M -1.0098961552807086,-0.649603410861781 l 6.97735961504185,4.487760984093851 " /></g><g stroke-width="0.0"><g fill="rgb(0,0,0)" fill-opacity="1.0"><g fill="rgb(0,0,0)" fill-opacity="1.0"><path d="" /></g></g><g fill="rgb(0,0,0)" fill-opacity="1.0"><g fill="rgb(0,0,0)" fill-opacity="1.0"><path d="" /></g></g></g><g stroke-width="0.0"><g fill="rgb(0,0,0)" fill-opacity="1.0"><g fill="rgb(0,0,0)" fill-opacity="1.0"><path d="M 6.077103954849498,3.908677134109155 l -0.18394418537872279,-4.842392541767982e-2 l 8.301800643375959e-2,-1.6490683135166488e-2 l -1.9424923824256417e-2,-8.238084945496767e-2 Z" /></g></g><g fill="rgb(0,0,0)" fill-opacity="1.0"><g fill="rgb(0,0,0)" fill-opacity="1.0"><path d="M 5.976177775904535,3.8437625255563086 l -1.4123866856130485e-2,2.805562587841346e-3 l 1.0819101425474383e-2,-1.6821029824160533e-2 l 3.3047654306561022e-3,1.4015467236319185e-2 Z" /></g></g></g></g></g><g><g><g stroke-width="2.0e-2"><path d="M 1.6415661017401635,-1.132160206630106 l -1.9204866612066198,2.9858019165451615 " /></g><g stroke-width="0.0"><g fill="rgb(0,0,0)" fill-opacity="1.0"><g fill="rgb(0,0,0)" fill-opacity="1.0"><path d="" /></g></g><g fill="rgb(0,0,0)" fill-opacity="1.0"><g fill="rgb(0,0,0)" fill-opacity="1.0"><path d="" /></g></g></g><g stroke-width="0.0"><g fill="rgb(0,0,0)" fill-opacity="1.0"><g fill="rgb(0,0,0)" fill-opacity="1.0"><path d="M -0.349441463212871,1.963281341272999 l 4.8426178358798026e-2,-0.18394359226964346 l 1.6489666331026075e-2,8.301820840509411e-2 l 8.2381087364872e-2,-1.9423914823782015e-2 Z" /></g></g><g fill="rgb(0,0,0)" fill-opacity="1.0"><g fill="rgb(0,0,0)" fill-opacity="1.0"><path d="M -0.2845256185230469,1.8623559574084496 l -2.805389598788551e-3,-1.412390121754628e-2 l 1.6820897310758223e-2,1.0819307448304014e-2 l -1.401550771196967e-2,3.304593769242266e-3 Z" /></g></g></g></g></g><g><g><g stroke-width="2.0e-2"><path d="M 1.5089211380932233,-1.3294217962004513 l -2.3480632634545433,0.4384986598457984 " /></g><g stroke-width="0.0"><g fill="rgb(0,0,0)" fill-opacity="1.0"><g fill="rgb(0,0,0)" fill-opacity="1.0"><path d="" /></g></g><g fill="rgb(0,0,0)" fill-opacity="1.0"><g fill="rgb(0,0,0)" fill-opacity="1.0"><path d="" /></g></g></g><g stroke-width="0.0"><g fill="rgb(0,0,0)" fill-opacity="1.0"><g fill="rgb(0,0,0)" fill-opacity="1.0"><path d="M -0.9672879348592508,-0.8669920240186817 l 0.16703709812402087,-9.098872313537082e-2 l -4.907642228054953e-2,6.895967516339815e-2 l 7.065700481383112e-2,4.6599567522010936e-2 Z" /></g></g><g fill="rgb(0,0,0)" fill-opacity="1.0"><g fill="rgb(0,0,0)" fill-opacity="1.0"><path d="M -0.8493272590157794,-0.8890210719906544 l 8.349379656795101e-3,-1.1732120684287747e-2 l 3.671507995328777e-3,1.9660112640578556e-2 l -1.2020887652123878e-2,-7.92799195629081e-3 Z" /></g></g></g></g></g><g><g><g stroke-width="2.0e-2"><path d="M 1.5190326679835149,-1.478915182153014 l -7.469781137651958,-2.4758547495982217 " /></g><g stroke-width="0.0"><g fill="rgb(0,0,0)" fill-opacity="1.0"><g fill="rgb(0,0,0)" fill-opacity="1.0"><path d="" /></g></g><g fill="rgb(0,0,0)" fill-opacity="1.0"><g fill="rgb(0,0,0)" fill-opacity="1.0"><path d="" /></g></g></g><g stroke-width="0.0"><g fill="rgb(0,0,0)" fill-opacity="1.0"><g fill="rgb(0,0,0)" fill-opacity="1.0"><path d="M -6.074489734740805,-3.9957839043436114 l 0.19020799844615452,1.121255816767655e-3 l -7.630179023809192e-2,3.663289271900913e-2 l 3.931623736777683e-2,7.495442282974929e-2 Z" /></g></g><g fill="rgb(0,0,0)" fill-opacity="1.0"><g fill="rgb(0,0,0)" fill-opacity="1.0"><path d="M -5.9605835265327425,-3.958029755807835 l 1.2981235908948133e-2,-6.232359960739735e-3 l -6.29235808929613e-3,1.8984368034677093e-2 l -6.688877819652004e-3,-1.2752008073937358e-2 Z" /></g></g></g></g></g><g><g><g stroke-width="2.0e-2"><path d="M 1.9954190481952676,-1.1536022467968885 l 4.0592565295569285,4.893350658868362 " /></g><g stroke-width="0.0"><g fill="rgb(0,0,0)" fill-opacity="1.0"><g fill="rgb(0,0,0)" fill-opacity="1.0"><path d="" /></g></g><g fill="rgb(0,0,0)" fill-opacity="1.0"><g fill="rgb(0,0,0)" fill-opacity="1.0"><path d="" /></g></g></g><g stroke-width="0.0"><g fill="rgb(0,0,0)" fill-opacity="1.0"><g fill="rgb(0,0,0)" fill-opacity="1.0"><path d="M 6.137906290817128,3.8400813330506813 l -0.1607379803096778,-0.10170369498432484 l 8.412251233191373e-2,9.345316552543094e-3 l 6.3556422811671814e-3,-8.440105351056972e-2 Z" /></g></g><g fill="rgb(0,0,0)" fill-opacity="1.0"><g fill="rgb(0,0,0)" fill-opacity="1.0"><path d="M 6.061290822839363,3.7477229546188995 l -1.4311776623149369e-2,-1.5899202159452954e-3 l 1.5393063071963621e-2,-1.276924466296068e-2 l -1.0812864488142521e-3,1.4359164878905975e-2 Z" /></g></g></g></g></g><g><g><g stroke-width="2.0e-2"><path d="M -0.34944146321287134,1.9632813412729988 l 1.9204866612066203,-2.9858019165451615 " /></g><g stroke-width="0.0"><g fill="rgb(0,0,0)" fill-opacity="1.0"><g fill="rgb(0,0,0)" fill-opacity="1.0"><path d="" /></g></g><g fill="rgb(0,0,0)" fill-opacity="1.0"><g fill="rgb(0,0,0)" fill-opacity="1.0"><path d="" /></g></g></g><g stroke-width="0.0"><g fill="rgb(0,0,0)" fill-opacity="1.0"><g fill="rgb(0,0,0)" fill-opacity="1.0"><path d="M 1.6415661017401637,-1.1321602066301062 l -4.842617835879805e-2,0.18394359226964344 l -1.648966633102606e-2,-8.301820840509411e-2 l -8.2381087364872e-2,1.9423914823782e-2 Z" /></g></g><g fill="rgb(0,0,0)" fill-opacity="1.0"><g fill="rgb(0,0,0)" fill-opacity="1.0"><path d="M 1.5766502570503396,-1.0312348227655568 l 2.8053895987885484e-3,1.412390121754628e-2 l -1.682089731075822e-2,-1.0819307448304017e-2 l 1.4015507711969672e-2,-3.3045937692422625e-3 Z" /></g></g></g></g></g><g><g><g stroke-width="2.0e-2"><path d="M -0.5839495769355129,1.9243701749729667 l -0.5747280127344541,-2.3184930117315536 " /></g><g stroke-width="0.0"><g fill="rgb(0,0,0)" fill-opacity="1.0"><g fill="rgb(0,0,0)" fill-opacity="1.0"><path d="" /></g></g><g fill="rgb(0,0,0)" fill-opacity="1.0"><g fill="rgb(0,0,0)" fill-opacity="1.0"><path d="" /></g></g></g><g stroke-width="0.0"><g fill="rgb(0,0,0)" fill-opacity="1.0"><g fill="rgb(0,0,0)" fill-opacity="1.0"><path d="M -1.1900433239808008,-0.5206544033364929 l 0.1005778706622117,0.1614448259330548 l -7.170511054521025e-2,-4.49700916632309e-2 l -4.239844123560177e-2,7.32550626461505e-2 Z" /></g></g><g fill="rgb(0,0,0)" fill-opacity="1.0"><g fill="rgb(0,0,0)" fill-opacity="1.0"><path d="M -1.1611705638637995,-0.404179669066669 l 1.2199202049651095e-2,7.650768964998538e-3 l -1.9412455711637314e-2,4.812126686166907e-3 l 7.213253661986219e-3,-1.2462895651165446e-2 Z" /></g></g></g></g></g><g><g><g stroke-width="2.0e-2"><path d="M -0.715740377668101,1.9956503218954253 l -5.350961679424578,-5.7702831805094075 " /></g><g stroke-width="0.0"><g fill="rgb(0,0,0)" fill-opacity="1.0"><g fill="rgb(0,0,0)" fill-opacity="1.0"><path d="" /></g></g><g fill="rgb(0,0,0)" fill-opacity="1.0"><g fill="rgb(0,0,0)" fill-opacity="1.0"><path d="" /></g></g></g><g stroke-width="0.0"><g fill="rgb(0,0,0)" fill-opacity="1.0"><g fill="rgb(0,0,0)" fill-opacity="1.0"><path d="M -6.155342793239479,-3.8702198165364425 l 0.16610554040049544,9.267841893212425e-2 l -8.45100423962613e-2,-4.688790535130646e-3 l -1.6883008144850942e-3,8.46231745023786e-2 Z" /></g></g><g fill="rgb(0,0,0)" fill-opacity="1.0"><g fill="rgb(0,0,0)" fill-opacity="1.0"><path d="M -6.073747295235244,-3.782230188139449 l 1.4377707175648964e-2,7.977046917804547e-4 l -1.4664938066165596e-2,1.3599249667372358e-2 l 2.872308905166312e-4,-1.4396954359152812e-2 Z" /></g></g></g></g></g><g><g><g stroke-width="2.0e-2"><path d="M -0.2221375366567607,2.2941694916708935 l 6.136157985419241,1.6641478607375206 " /></g><g stroke-width="0.0"><g fill="rgb(0,0,0)" fill-opacity="1.0"><g fill="rgb(0,0,0)" fill-opacity="1.0"><path d="" /></g></g><g fill="rgb(0,0,0)" fill-opacity="1.0"><g fill="rgb(0,0,0)" fill-opacity="1.0"><path d="" /></g></g></g><g stroke-width="0.0"><g fill="rgb(0,0,0)" fill-opacity="1.0"><g fill="rgb(0,0,0)" fill-opacity="1.0"><path d="M 6.0398367715188686,3.992439186438507 l -0.18997995302118628,9.378557328651067e-3 l 7.41636144094776e-2,-4.0788360107051835e-2 l -4.339324965854574e-2,-7.267019957707099e-2 Z" /></g></g><g fill="rgb(0,0,0)" fill-opacity="1.0"><g fill="rgb(0,0,0)" fill-opacity="1.0"><path d="M 5.9240204329071595,3.9610293836601063 l -1.261746770954622e-2,6.939330299283548e-3 l 5.23496712973346e-3,-1.9302723101951445e-2 l 7.38250057981276e-3,1.2363392802667897e-2 Z" /></g></g></g></g></g></g></g></g></g></svg>