<?xml version="1.0" encoding="UTF-8"?>
<!DOCTYPE svg PUBLIC "-//W3C//DTD SVG 1.1//EN"
    "http://www.w3.org/Graphics/SVG/1.1/DTD/svg11.dtd">
<svg xmlns="http://www.w3.org/2000/svg" xmlns:xlink="http://www.w3.org/1999/xlink" version="1.1" width="280.0" height="146.1140671573053" font-size="1" viewBox="0 0 280 146"><g><g fill="rgb(0,0,0)" fill-opacity="0.0"><g stroke="rgb(0,0,0)" stroke-opacity="1.0" stroke-width="1.0e-2" stroke-linecap="butt" stroke-linejoin="miter" font-size="1.0em" stroke-miterlimit="10.0"><g transform="matrix(10.16661270802143,0.0,0.0,10.16661270802143,141.3342107024429,82.38650477072359)"><g><g fill="rgb(0,128,0)" fill-opacity="1.0"><g fill="rgb(0,128,0)" fill-opacity="1.0"><g fill="rgb(0,128,0)" fill-opacity="1.0"><path d="M 13.639330353181464,-2.2887603622503576 c -1.3322676295501878e-16,-0.6627416997969519 -0.5372583002030479,-1.1999999999999997 -1.1999999999999997 -1.2c -0.6627416997969519,9.264687812929929e-17 -1.1999999999999997,0.5372583002030478 -1.2 1.1999999999999995c 5.20669933035798e-17,0.6627416997969519 0.5372583002030477,1.1999999999999997 1.1999999999999995 1.2c 0.6627416997969519,-1.1487108477860311e-17 1.1999999999999997,-0.5372583002030477 1.2 -1.1999999999999995Z" /></g></g></g><g fill="rgb(255,255,255)" fill-opacity="1.0"><g fill="rgb(255,255,255)" fill-opacity="1.0"><text transform="matrix(1.2,0.0,0.0,1.2,12.439330353181465,-2.2887603622503576)" dominant-baseline="middle" text-anchor="middle" stroke="none">5</text></g></g></g><g><g fill="rgb(0,128,0)" fill-opacity="1.0"><g fill="rgb(0,128,0)" fill-opacity="1.0"><g fill="rgb(0,128,0)" fill-opacity="1.0"><path d="M 11.797886872480923,-6.903633642473748 c -1.3322676295501878e-16,-0.6627416997969519 -0.5372583002030479,-1.1999999999999997 -1.1999999999999997 -1.2c -0.6627416997969519,9.264687812929929e-17 -1.1999999999999997,0.5372583002030478 -1.2 1.1999999999999995c 5.20669933035798e-17,0.6627416997969519 0.5372583002030477,1.1999999999999997 1.1999999999999995 1.2c 0.6627416997969519,-1.1487108477860311e-17 1.1999999999999997,-0.5372583002030477 1.2 -1.1999999999999995Z" /></g></g></g><g fill="rgb(255,255,255)" fill-opacity="1.0"><g fill="rgb(255,255,255)" fill-opacity="1.0"><text transform="matrix(1.2,0.0,0.0,1.2,10.597886872480924,-6.903633642473748)" dominant-baseline="middle" text-anchor="middle" stroke="none">4</text></g></g></g><g><g fill="rgb(0,128,0)" fill-opacity="1.0"><g fill="rgb(0,128,0)" fill-opacity="1.0"><g fill="rgb(0,128,0)" fill-opacity="1.0"><path d="M -4.704187476623024,0.2163362875340643 c -1.3322676295501878e-16,-0.6627416997969519 -0.5372583002030479,-1.1999999999999997 -1.1999999999999997 -1.2c -0.6627416997969519,9.264687812929929e-17 -1.1999999999999997,0.5372583002030478 -1.2 1.1999999999999995c 5.20669933035798e-17,0.6627416997969519 0.5372583002030477,1.1999999999999997 1.1999999999999995 1.2c 0.6627416997969519,-1.1487108477860311e-17 1.1999999999999997,-0.5372583002030477 1.2 -1.1999999999999995Z" /></g></g></g><g fill="rgb(255,255,255)" fill-opacity="1.0"><g fill="rgb(255,255,255)" fill-opacity="1.0"><text transform="matrix(1.2,0.0,0.0,1.2,-5.904187476623024,0.2163362875340643)" dominant-baseline="middle" text-anchor="middle" stroke="none">3</text></g></g></g><g><g fill="rgb(0,128,0)" fill-opacity="1.0"><g fill="rgb(0,128,0)" fill-opacity="1.0"><g fill="rgb(0,128,0)" fill-opacity="1.0"><path d="M -11.501799425380941,5.0683180934295695 c -1.3322676295501878e-16,-0.6627416997969519 -0.5372583002030479,-1.1999999999999997 -1.1999999999999997 -1.2c -0.6627416997969519,9.264687812929929e-17 -1.1999999999999997,0.5372583002030478 -1.2 1.1999999999999995c 5.20669933035798e-17,0.6627416997969519 0.5372583002030477,1.1999999999999997 1.1999999999999995 1.2c 0.6627416997969519,-1.1487108477860311e-17 1.1999999999999997,-0.5372583002030477 1.2 -1.1999999999999995Z" /></g></g></g><g fill="rgb(255,255,255)" fill-opacity="1.0"><g fill="rgb(255,255,255)" fill-opacity="1.0"><text transform="matrix(1.2,0.0,0.0,1.2,-12.70179942538094,5.0683180934295695)" dominant-baseline="middle" text-anchor="middle" stroke="none">2</text></g></g></g><g><g fill="rgb(0,128,0)" fill-opacity="1.0"><g fill="rgb(0,128,0)" fill-opacity="1.0"><g fill="rgb(0,128,0)" fill-opacity="1.0"><path d="M -3.2312303236584237,3.907739623760472 c -1.3322676295501878e-16,-0.6627416997969519 -0.5372583002030479,-1.1999999999999997 -1.1999999999999997 -1.2c -0.6627416997969519,9.264687812929929e-17 -1.1999999999999997,0.5372583002030478 -1.2 1.1999999999999995c 5.20669933035798e-17,0.6627416997969519 0.5372583002030477,1.1999999999999997 1.1999999999999995 1.2c 0.6627416997969519,-1.1487108477860311e-17 1.1999999999999997,-0.5372583002030477 1.2 -1.1999999999999995Z" /></g></g></g><g fill="rgb(255,255,255)" fill-opacity="1.0"><g fill="rgb(255,255,255)" fill-opacity="1.0"><text transform="matrix(1.2,0.0,0.0,1.2,-4.431230323658424,3.907739623760472)" dominant-baseline="middle" text-anchor="middle" stroke="none">1</text></g></g></g><g><g><g stroke-width="6.0e-2"><path d="M 11.312602038026652,-1.874916855633564 l -14.24999967475351,5.233976776271817 " /></g><g stroke-width="0.0"><g fill="rgb(0,0,0)" fill-opacity="1.0"><g fill="rgb(0,0,0)" fill-opacity="1.0"><path d="" /></g></g><g fill="rgb(0,0,0)" fill-opacity="1.0"><g fill="rgb(0,0,0)" fill-opacity="1.0"><path d="" /></g></g></g><g stroke-width="0.0"><g fill="rgb(0,0,0)" fill-opacity="1.0"><g fill="rgb(0,0,0)" fill-opacity="1.0"><path d="M -3.304502008503607,3.4938961171436813 l 0.4486329121087038,-0.3526351785632773 l -0.11070629578359145,0.22851587313877747 l 0.23229879120576852,0.10253126258288575 Z" /></g></g><g fill="rgb(0,0,0)" fill-opacity="1.0"><g fill="rgb(0,0,0)" fill-opacity="1.0"><path d="M -2.9665753921784948,3.3697768117191815 l 1.8834479999594422e-2,-3.887744244135465e-2 l 2.068655090408331e-2,5.632110272085206e-2 l -3.952103090367773e-2,-1.744366027949741e-2 Z" /></g></g></g></g></g><g><g><g stroke-width="6.0e-2"><path d="M 11.042735807734765,-5.788790050175288 l 0.806806575294445,2.0219518794127866 " /></g><g stroke-width="0.0"><g fill="rgb(0,0,0)" fill-opacity="1.0"><g fill="rgb(0,0,0)" fill-opacity="1.0"><path d="" /></g></g><g fill="rgb(0,0,0)" fill-opacity="1.0"><g fill="rgb(0,0,0)" fill-opacity="1.0"><path d="" /></g></g></g><g stroke-width="0.0"><g fill="rgb(0,0,0)" fill-opacity="1.0"><g fill="rgb(0,0,0)" fill-opacity="1.0"><path d="M 11.994481417927624,-3.403603954548819 l -0.36490983085235107,-0.4387070484216079 l 0.2314906688859707,0.10434298453287486 l 9.606644053132186e-2,-0.23504601082797363 Z" /></g></g><g fill="rgb(0,0,0)" fill-opacity="1.0"><g fill="rgb(0,0,0)" fill-opacity="1.0"><path d="M 11.861062255961244,-3.737968018437552 l -3.938354492276107e-2,-1.7751888827750875e-2 l 5.5727343981455506e-2,-2.2236526994396728e-2 l -1.6343799058694434e-2,3.9988415822147606e-2 Z" /></g></g></g></g></g><g><g><g stroke-width="6.0e-2"><path d="M -4.802087593743515,-0.25917472156482024 l 13.93878849527807,-6.01401695614755 " /></g><g stroke-width="0.0"><g fill="rgb(0,0,0)" fill-opacity="1.0"><g fill="rgb(0,0,0)" fill-opacity="1.0"><path d="" /></g></g><g fill="rgb(0,0,0)" fill-opacity="1.0"><g fill="rgb(0,0,0)" fill-opacity="1.0"><path d="" /></g></g></g><g stroke-width="0.0"><g fill="rgb(0,0,0)" fill-opacity="1.0"><g fill="rgb(0,0,0)" fill-opacity="1.0"><path d="M 9.495786989601411,-6.428122633374861 l -0.4284454549867967,0.37690522825857325 l 9.789982263009674e-2,-0.23428831155543695 l -0.23761335657264288,-8.952810162615964e-2 Z" /></g></g><g fill="rgb(0,0,0)" fill-opacity="1.0"><g fill="rgb(0,0,0)" fill-opacity="1.0"><path d="M 9.165241357244712,-6.285505716671725 l -1.6655712651562626e-2,3.985950832241339e-2 l -2.3769486117189393e-2,-5.509093872611666e-2 l 4.0425198768752016e-2,1.5231430403703266e-2 Z" /></g></g></g></g></g><g><g><g stroke-width="6.0e-2"><path d="M -11.725008703682013,4.371106948460235 l 4.525716140757794,-3.2303539153359297 " /></g><g stroke-width="0.0"><g fill="rgb(0,0,0)" fill-opacity="1.0"><g fill="rgb(0,0,0)" fill-opacity="1.0"><path d="" /></g></g><g fill="rgb(0,0,0)" fill-opacity="1.0"><g fill="rgb(0,0,0)" fill-opacity="1.0"><path d="" /></g></g></g><g stroke-width="0.0"><g fill="rgb(0,0,0)" fill-opacity="1.0"><g fill="rgb(0,0,0)" fill-opacity="1.0"><path d="M -6.880978198321952,0.9135474325033994 l -0.33927881888835965,0.45881689380537205 l 4.626434009828356e-2,-0.24966977998502793 l -0.25115365520350635,-3.737953558325943e-2 Z" /></g></g><g fill="rgb(0,0,0)" fill-opacity="1.0"><g fill="rgb(0,0,0)" fill-opacity="1.0"><path d="M -7.173992677112028,1.1226945463237437 l -7.870959660495724e-3,4.2476360033067984e-2 l -3.48578523033907e-2,-4.883574646501269e-2 l 4.272881196388643e-2,6.359386431944707e-3 Z" /></g></g></g></g></g><g><g><g stroke-width="6.0e-2"><path d="M -5.619733824295484,4.074517938166726 l -5.506273010050231,0.7726749906791079 " /></g><g stroke-width="0.0"><g fill="rgb(0,0,0)" fill-opacity="1.0"><g fill="rgb(0,0,0)" fill-opacity="1.0"><path d="" /></g></g><g fill="rgb(0,0,0)" fill-opacity="1.0"><g fill="rgb(0,0,0)" fill-opacity="1.0"><path d="" /></g></g></g><g stroke-width="0.0"><g fill="rgb(0,0,0)" fill-opacity="1.0"><g fill="rgb(0,0,0)" fill-opacity="1.0"><path d="M -11.513295924743879,4.9015397790233175 l 0.5129349739807703,-0.2500415394586208 l -0.1564279369644061,0.2000142213432877 l 0.2054368032976343,0.1492350764845551 Z" /></g></g><g fill="rgb(0,0,0)" fill-opacity="1.0"><g fill="rgb(0,0,0)" fill-opacity="1.0"><path d="M -11.156788887727515,4.851512460907984 l 2.6613110205522796e-2,-3.402845181351429e-2 l 8.337886352555514e-3,5.941783950272736e-2 l -3.495099655807831e-2,-2.5389387689213068e-2 Z" /></g></g></g></g></g><g><g><g stroke-width="6.0e-2"><path d="M -4.876079258912259,2.792896031462009 l -0.43832024755851834,-1.098481935415799 " /></g><g stroke-width="0.0"><g fill="rgb(0,0,0)" fill-opacity="1.0"><g fill="rgb(0,0,0)" fill-opacity="1.0"><path d="" /></g></g><g fill="rgb(0,0,0)" fill-opacity="1.0"><g fill="rgb(0,0,0)" fill-opacity="1.0"><path d="" /></g></g></g><g stroke-width="0.0"><g fill="rgb(0,0,0)" fill-opacity="1.0"><g fill="rgb(0,0,0)" fill-opacity="1.0"><path d="M -5.459338541369189,1.331179879832527 l 0.36490983085234907,0.43870704842160957 l -0.23149066888597025,-0.10434298453287591 l -9.606644053132295e-2,0.23504601082797322 Z" /></g></g><g fill="rgb(0,0,0)" fill-opacity="1.0"><g fill="rgb(0,0,0)" fill-opacity="1.0"><path d="M -5.32591937940281,1.6655439437212605 l 3.938354492276099e-2,1.7751888827751056e-2 l -5.572734398145561e-2,2.2236526994396474e-2 l 1.6343799058694618e-2,-3.998841582214753e-2 Z" /></g></g></g></g></g></g></g></g></g></svg>