<?xml version="1.0" encoding="UTF-8"?>
<!DOCTYPE svg PUBLIC "-//W3C//DTD SVG 1.1//EN"
    "http://www.w3.org/Graphics/SVG/1.1/DTD/svg11.dtd">
<svg xmlns="http://www.w3.org/2000/svg" xmlns:xlink="http://www.w3.org/1999/xlink" version="1.1" width="180.0" height="163.07601400906847" font-size="1" viewBox="0 0 180 163"><g><g fill="rgb(0,0,0)" fill-opacity="0.0"><g stroke="rgb(0,0,0)" stroke-opacity="1.0" stroke-width="1.0e-2" stroke-linecap="butt" stroke-linejoin="miter" font-size="1.0em" stroke-miterlimit="10.0"><g transform="matrix(2.866037129118284,0.0,0.0,2.866037129118284,101.82793526022375,75.49204480891268)"><g><g fill="rgb(0,128,0)" fill-opacity="1.0"><g fill="rgb(0,128,0)" fill-opacity="1.0"><g fill="rgb(0,128,0)" fill-opacity="1.0"><path d="M -30.92917518955883,12.103076087164375 c -2.55351295663786e-16,-1.2702549246108243 -1.029745075389175,-2.2999999999999994 -2.2999999999999994 -2.3c -1.2702549246108243,1.7757318308115695e-16 -2.2999999999999994,1.0297450753891748 -2.3 2.299999999999999c 9.979507049852795e-17,1.2702549246108243 1.0297450753891748,2.2999999999999994 2.299999999999999 2.3c 1.2702549246108243,-2.2016957915898927e-17 2.2999999999999994,-1.0297450753891746 2.3000000000000007 -2.299999999999999Z" /></g></g></g><g fill="rgb(255,255,255)" fill-opacity="1.0"><g fill="rgb(255,255,255)" fill-opacity="1.0"><text transform="matrix(2.3,0.0,0.0,2.3,-33.22917518955883,12.103076087164375)" dominant-baseline="middle" text-anchor="middle" stroke="none">7</text></g></g></g><g><g fill="rgb(0,128,0)" fill-opacity="1.0"><g fill="rgb(0,128,0)" fill-opacity="1.0"><g fill="rgb(0,128,0)" fill-opacity="1.0"><path d="M -26.656170816347377,-1.2817809320355753 c -2.55351295663786e-16,-1.2702549246108243 -1.029745075389175,-2.2999999999999994 -2.2999999999999994 -2.3c -1.2702549246108243,1.7757318308115695e-16 -2.2999999999999994,1.0297450753891748 -2.3 2.299999999999999c 9.979507049852795e-17,1.2702549246108243 1.0297450753891748,2.2999999999999994 2.299999999999999 2.3c 1.2702549246108243,-2.2016957915898927e-17 2.2999999999999994,-1.0297450753891746 2.3000000000000007 -2.299999999999999Z" /></g></g></g><g fill="rgb(255,255,255)" fill-opacity="1.0"><g fill="rgb(255,255,255)" fill-opacity="1.0"><text transform="matrix(2.3,0.0,0.0,2.3,-28.956170816347377,-1.2817809320355753)" dominant-baseline="middle" text-anchor="middle" stroke="none">6</text></g></g></g><g><g fill="rgb(0,128,0)" fill-opacity="1.0"><g fill="rgb(0,128,0)" fill-opacity="1.0"><g fill="rgb(0,128,0)" fill-opacity="1.0"><path d="M -11.840446069785667,-20.374405522324142 c -2.55351295663786e-16,-1.2702549246108243 -1.029745075389175,-2.2999999999999994 -2.2999999999999994 -2.3c -1.2702549246108243,1.7757318308115695e-16 -2.2999999999999994,1.0297450753891748 -2.3 2.299999999999999c 9.979507049852795e-17,1.2702549246108243 1.0297450753891748,2.2999999999999994 2.299999999999999 2.3c 1.2702549246108243,-2.2016957915898927e-17 2.2999999999999994,-1.0297450753891746 2.3000000000000007 -2.299999999999999Z" /></g></g></g><g fill="rgb(255,255,255)" fill-opacity="1.0"><g fill="rgb(255,255,255)" fill-opacity="1.0"><text transform="matrix(2.3,0.0,0.0,2.3,-14.140446069785668,-20.374405522324142)" dominant-baseline="middle" text-anchor="middle" stroke="none">5</text></g></g></g><g><g fill="rgb(0,128,0)" fill-opacity="1.0"><g fill="rgb(0,128,0)" fill-opacity="1.0"><g fill="rgb(0,128,0)" fill-opacity="1.0"><path d="M 9.427712983191952,-24.040218708938102 c -2.55351295663786e-16,-1.2702549246108243 -1.029745075389175,-2.2999999999999994 -2.2999999999999994 -2.3c -1.2702549246108243,1.7757318308115695e-16 -2.2999999999999994,1.0297450753891748 -2.3 2.299999999999999c 9.979507049852795e-17,1.2702549246108243 1.0297450753891748,2.2999999999999994 2.299999999999999 2.3c 1.2702549246108243,-2.2016957915898927e-17 2.2999999999999994,-1.0297450753891746 2.3000000000000007 -2.299999999999999Z" /></g></g></g><g fill="rgb(255,255,255)" fill-opacity="1.0"><g fill="rgb(255,255,255)" fill-opacity="1.0"><text transform="matrix(2.3,0.0,0.0,2.3,7.127712983191953,-24.040218708938102)" dominant-baseline="middle" text-anchor="middle" stroke="none">4</text></g></g></g><g><g fill="rgb(0,128,0)" fill-opacity="1.0"><g fill="rgb(0,128,0)" fill-opacity="1.0"><g fill="rgb(0,128,0)" fill-opacity="1.0"><path d="M 25.26068362252654,-9.374312893789773 c -2.55351295663786e-16,-1.2702549246108243 -1.029745075389175,-2.2999999999999994 -2.2999999999999994 -2.3c -1.2702549246108243,1.7757318308115695e-16 -2.2999999999999994,1.0297450753891748 -2.3 2.299999999999999c 9.979507049852795e-17,1.2702549246108243 1.0297450753891748,2.2999999999999994 2.299999999999999 2.3c 1.2702549246108243,-2.2016957915898927e-17 2.2999999999999994,-1.0297450753891746 2.3000000000000007 -2.299999999999999Z" /></g></g></g><g fill="rgb(255,255,255)" fill-opacity="1.0"><g fill="rgb(255,255,255)" fill-opacity="1.0"><text transform="matrix(2.3,0.0,0.0,2.3,22.96068362252654,-9.374312893789773)" dominant-baseline="middle" text-anchor="middle" stroke="none">3</text></g></g></g><g><g fill="rgb(0,128,0)" fill-opacity="1.0"><g fill="rgb(0,128,0)" fill-opacity="1.0"><g fill="rgb(0,128,0)" fill-opacity="1.0"><path d="M 27.27531473530677,14.708383574306971 c -2.55351295663786e-16,-1.2702549246108243 -1.029745075389175,-2.2999999999999994 -2.2999999999999994 -2.3c -1.2702549246108243,1.7757318308115695e-16 -2.2999999999999994,1.0297450753891748 -2.3 2.299999999999999c 9.979507049852795e-17,1.2702549246108243 1.0297450753891748,2.2999999999999994 2.299999999999999 2.3c 1.2702549246108243,-2.2016957915898927e-17 2.2999999999999994,-1.0297450753891746 2.3000000000000007 -2.299999999999999Z" /></g></g></g><g fill="rgb(255,255,255)" fill-opacity="1.0"><g fill="rgb(255,255,255)" fill-opacity="1.0"><text transform="matrix(2.3,0.0,0.0,2.3,24.97531473530677,14.708383574306971)" dominant-baseline="middle" text-anchor="middle" stroke="none">2</text></g></g></g><g><g fill="rgb(0,128,0)" fill-opacity="1.0"><g fill="rgb(0,128,0)" fill-opacity="1.0"><g fill="rgb(0,128,0)" fill-opacity="1.0"><path d="M 23.562080734666615,28.259258395616243 c -2.55351295663786e-16,-1.2702549246108243 -1.029745075389175,-2.2999999999999994 -2.2999999999999994 -2.3c -1.2702549246108243,1.7757318308115695e-16 -2.2999999999999994,1.0297450753891748 -2.3 2.299999999999999c 9.979507049852795e-17,1.2702549246108243 1.0297450753891748,2.2999999999999994 2.299999999999999 2.3c 1.2702549246108243,-2.2016957915898927e-17 2.2999999999999994,-1.0297450753891746 2.3000000000000007 -2.299999999999999Z" /></g></g></g><g fill="rgb(255,255,255)" fill-opacity="1.0"><g fill="rgb(255,255,255)" fill-opacity="1.0"><text transform="matrix(2.3,0.0,0.0,2.3,21.262080734666615,28.259258395616243)" dominant-baseline="middle" text-anchor="middle" stroke="none">1</text></g></g></g><g><g><g stroke-width="0.2"><path d="M -29.655835687828397,0.9098653777228093 l -2.6231973996784093,8.2169637709601 " /></g><g stroke-width="0.0"><g fill="rgb(0,0,0)" fill-opacity="1.0"><g fill="rgb(0,0,0)" fill-opacity="1.0"><path d="" /></g></g><g fill="rgb(0,0,0)" fill-opacity="1.0"><g fill="rgb(0,0,0)" fill-opacity="1.0"><path d="" /></g></g></g><g stroke-width="0.0"><g fill="rgb(0,0,0)" fill-opacity="1.0"><g fill="rgb(0,0,0)" fill-opacity="1.0"><path d="M -32.52951031807781,9.911429777405987 l -5.871048600377515e-3,-1.1412527181734526 l 0.22483771134848915,0.45535651567269897 l 0.4470950760404353,-0.24084755716096634 Z" /></g></g><g fill="rgb(0,0,0)" fill-opacity="1.0"><g fill="rgb(0,0,0)" fill-opacity="1.0"><path d="M -32.3105436553297,9.225533574905233 l -6.375279363553832e-2,-0.1291164627151166 l 0.19052672291687603,6.082407298558652e-2 l -0.12677392928133768,6.829238972953006e-2 Z" /></g></g></g></g></g><g><g><g stroke-width="0.2"><path d="M -15.550552399722608,-18.557239555055244 l -11.490587428199964,14.807609876757745 " /></g><g stroke-width="0.0"><g fill="rgb(0,0,0)" fill-opacity="1.0"><g fill="rgb(0,0,0)" fill-opacity="1.0"><path d="" /></g></g><g fill="rgb(0,0,0)" fill-opacity="1.0"><g fill="rgb(0,0,0)" fill-opacity="1.0"><path d="" /></g></g></g><g stroke-width="0.0"><g fill="rgb(0,0,0)" fill-opacity="1.0"><g fill="rgb(0,0,0)" fill-opacity="1.0"><path d="M -27.546064486410437,-3.098946899304476 l 0.38680017559895885,-1.0737215002534766 l 5.460388798107654e-2,0.5048959974364597 l 0.5026415148250788,-7.247799931260326e-2 Z" /></g></g><g fill="rgb(0,0,0)" fill-opacity="1.0"><g fill="rgb(0,0,0)" fill-opacity="1.0"><path d="M -27.104660422830403,-3.667772402121493 l -1.5482947150089021e-2,-0.143163396117678 l 0.15800708411583805,0.12261223988334315 l -0.14252413696574903,2.0551156234334865e-2 Z" /></g></g></g></g></g><g><g><g stroke-width="0.2"><path d="M 4.860767811418925,-23.649484490554826 l -15.922624678546683,2.7444485141721495 " /></g><g stroke-width="0.0"><g fill="rgb(0,0,0)" fill-opacity="1.0"><g fill="rgb(0,0,0)" fill-opacity="1.0"><path d="" /></g></g><g fill="rgb(0,0,0)" fill-opacity="1.0"><g fill="rgb(0,0,0)" fill-opacity="1.0"><path d="" /></g></g></g><g stroke-width="0.0"><g fill="rgb(0,0,0)" fill-opacity="1.0"><g fill="rgb(0,0,0)" fill-opacity="1.0"><path d="M -11.873500898012642,-20.76513974070741 l 1.0097341701867424,-0.5319108398098804 l -0.3001966829782871,0.40961384783578947 l 0.42000396344845664,0.28547893704719285 Z" /></g></g><g fill="rgb(0,0,0)" fill-opacity="1.0"><g fill="rgb(0,0,0)" fill-opacity="1.0"><path d="M -11.163963410804186,-20.887436732681504 l 8.512085034669366e-2,-0.11614611692456796 l 3.397138665946977e-2,0.1970937464467932 l -0.1190922370061634,-8.094762952222523e-2 Z" /></g></g></g></g></g><g><g><g stroke-width="0.2"><path d="M 21.273331811295538,-10.937288238356814 l -11.85404216631529,-10.98026832109905 " /></g><g stroke-width="0.0"><g fill="rgb(0,0,0)" fill-opacity="1.0"><g fill="rgb(0,0,0)" fill-opacity="1.0"><path d="" /></g></g><g fill="rgb(0,0,0)" fill-opacity="1.0"><g fill="rgb(0,0,0)" fill-opacity="1.0"><path d="" /></g></g></g><g stroke-width="0.0"><g fill="rgb(0,0,0)" fill-opacity="1.0"><g fill="rgb(0,0,0)" fill-opacity="1.0"><path d="M 8.815064794422954,-22.477243364371063 l 1.0359453702644146,0.4788626376923624 l -0.5077332897715403,1.0414377935174607e-2 l 2.8416932985640048e-2,0.507044407058886 Z" /></g></g><g fill="rgb(0,0,0)" fill-opacity="1.0"><g fill="rgb(0,0,0)" fill-opacity="1.0"><path d="M 9.343276874915828,-21.987966348743527 l 0.14396791112380042,-2.9529996696800037e-3 l -0.13591028211876027,0.14672557791468735 l -8.05762900504016e-3,-0.14377257824500736 Z" /></g></g></g></g></g><g><g><g stroke-width="0.2"><path d="M 24.78356801266721,12.416262654111158 l -1.5624784504735416,-18.67770929476418 " /></g><g stroke-width="0.0"><g fill="rgb(0,0,0)" fill-opacity="1.0"><g fill="rgb(0,0,0)" fill-opacity="1.0"><path d="" /></g></g><g fill="rgb(0,0,0)" fill-opacity="1.0"><g fill="rgb(0,0,0)" fill-opacity="1.0"><path d="" /></g></g></g><g stroke-width="0.0"><g fill="rgb(0,0,0)" fill-opacity="1.0"><g fill="rgb(0,0,0)" fill-opacity="1.0"><path d="M 23.152430345166106,-7.082191973593964 l 0.4419272002190408,1.052232191893273 l -0.38190545858148484,-0.3347383657659715 l -0.3209816907660615,0.39353819001841245 Z" /></g></g><g fill="rgb(0,0,0)" fill-opacity="1.0"><g fill="rgb(0,0,0)" fill-opacity="1.0"><path d="M 23.212452086803662,-6.364698147466662 l 0.10828939568546554,9.491515380842147e-2 l -0.1993038405909171,1.667270601043226e-2 l 9.101444490545156e-2,-0.11158785981885373 Z" /></g></g></g></g></g><g><g><g stroke-width="0.2"><path d="M 21.870075753473056,26.040474340960575 l 2.2795803932428917,-8.318977082677787 " /></g><g stroke-width="0.0"><g fill="rgb(0,0,0)" fill-opacity="1.0"><g fill="rgb(0,0,0)" fill-opacity="1.0"><path d="" /></g></g><g fill="rgb(0,0,0)" fill-opacity="1.0"><g fill="rgb(0,0,0)" fill-opacity="1.0"><path d="" /></g></g></g><g stroke-width="0.0"><g fill="rgb(0,0,0)" fill-opacity="1.0"><g fill="rgb(0,0,0)" fill-opacity="1.0"><path d="M 24.36731971650033,16.927167628962636 l 5.328100896607735e-2,1.1400234076691227 l -0.24356203917738345,-0.4456221335187047 l -0.4367026743538137,0.25921482793666445 Z" /></g></g><g fill="rgb(0,0,0)" fill-opacity="1.0"><g fill="rgb(0,0,0)" fill-opacity="1.0"><path d="M 24.177038686289023,17.621568903113054 l 6.906208183670418e-2,0.12635627603241562 l -0.1928892428195606,-5.285584172536276e-2 l 0.12382716098285641,-7.350043430705286e-2 Z" /></g></g></g></g></g></g></g></g></g></svg>