<?xml version="1.0" encoding="UTF-8"?>
<!DOCTYPE svg PUBLIC "-//W3C//DTD SVG 1.1//EN"
    "http://www.w3.org/Graphics/SVG/1.1/DTD/svg11.dtd">
<svg xmlns="http://www.w3.org/2000/svg" xmlns:xlink="http://www.w3.org/1999/xlink" version="1.1" width="300.0" height="331.90389546128637" font-size="1" viewBox="0 0 300 332"><g><g fill="rgb(0,0,0)" fill-opacity="0.0"><g stroke="rgb(0,0,0)" stroke-opacity="1.0" stroke-width="1.0e-2" stroke-linecap="butt" stroke-linejoin="miter" font-size="1.0em" stroke-miterlimit="10.0"><g transform="matrix(4.931651365122464,0.0,0.0,4.931651365122464,150.00540196626773,165.9461921185424)"><g><g fill="rgb(0,128,0)" fill-opacity="1.0"><g fill="rgb(0,128,0)" fill-opacity="1.0"><g fill="rgb(0,128,0)" fill-opacity="1.0"><path d="M 29.262366893272997,-15.226403349384304 c -5.773159728050814e-16,-2.871880699120125 -2.328119300879874,-5.199999999999999 -5.199999999999999 -5.2c -2.871880699120125,4.014698052269636e-16 -5.199999999999999,2.328119300879874 -5.2 5.199999999999998c 2.256236376488458e-16,2.871880699120125 2.3281193008798735,5.199999999999999 5.1999999999999975 5.2c 2.871880699120125,-4.9777470070728016e-17 5.199999999999999,-2.328119300879873 5.200000000000001 -5.199999999999998Z" /></g></g></g><g fill="rgb(255,255,255)" fill-opacity="1.0"><g fill="rgb(255,255,255)" fill-opacity="1.0"><text transform="matrix(5.2,0.0,0.0,5.2,24.062366893272998,-15.226403349384304)" dominant-baseline="middle" text-anchor="middle" stroke="none">7</text></g></g></g><g><g fill="rgb(0,128,0)" fill-opacity="1.0"><g fill="rgb(0,128,0)" fill-opacity="1.0"><g fill="rgb(0,128,0)" fill-opacity="1.0"><path d="M -18.860387281933306,15.225253413437247 c -5.773159728050814e-16,-2.871880699120125 -2.328119300879874,-5.199999999999999 -5.199999999999999 -5.2c -2.871880699120125,4.014698052269636e-16 -5.199999999999999,2.328119300879874 -5.2 5.199999999999998c 2.256236376488458e-16,2.871880699120125 2.3281193008798735,5.199999999999999 5.1999999999999975 5.2c 2.871880699120125,-4.9777470070728016e-17 5.199999999999999,-2.328119300879873 5.200000000000001 -5.199999999999998Z" /></g></g></g><g fill="rgb(255,255,255)" fill-opacity="1.0"><g fill="rgb(255,255,255)" fill-opacity="1.0"><text transform="matrix(5.2,0.0,0.0,5.2,-24.060387281933306,15.225253413437247)" dominant-baseline="middle" text-anchor="middle" stroke="none">6</text></g></g></g><g><g fill="rgb(0,128,0)" fill-opacity="1.0"><g fill="rgb(0,128,0)" fill-opacity="1.0"><g fill="rgb(0,128,0)" fill-opacity="1.0"><path d="M -20.016870711326682,-13.224806417516985 c -5.773159728050814e-16,-2.871880699120125 -2.328119300879874,-5.199999999999999 -5.199999999999999 -5.2c -2.871880699120125,4.014698052269636e-16 -5.199999999999999,2.328119300879874 -5.2 5.199999999999998c 2.256236376488458e-16,2.871880699120125 2.3281193008798735,5.199999999999999 5.1999999999999975 5.2c 2.871880699120125,-4.9777470070728016e-17 5.199999999999999,-2.328119300879873 5.200000000000001 -5.199999999999998Z" /></g></g></g><g fill="rgb(255,255,255)" fill-opacity="1.0"><g fill="rgb(255,255,255)" fill-opacity="1.0"><text transform="matrix(5.2,0.0,0.0,5.2,-25.21687071132668,-13.224806417516985)" dominant-baseline="middle" text-anchor="middle" stroke="none">5</text></g></g></g><g><g fill="rgb(0,128,0)" fill-opacity="1.0"><g fill="rgb(0,128,0)" fill-opacity="1.0"><g fill="rgb(0,128,0)" fill-opacity="1.0"><path d="M 4.044279171038956,-28.449213991918413 c -5.773159728050814e-16,-2.871880699120125 -2.328119300879874,-5.199999999999999 -5.199999999999999 -5.2c -2.871880699120125,4.014698052269636e-16 -5.199999999999999,2.328119300879874 -5.2 5.199999999999998c 2.256236376488458e-16,2.871880699120125 2.3281193008798735,5.199999999999999 5.1999999999999975 5.2c 2.871880699120125,-4.9777470070728016e-17 5.199999999999999,-2.328119300879873 5.200000000000001 -5.199999999999998Z" /></g></g></g><g fill="rgb(255,255,255)" fill-opacity="1.0"><g fill="rgb(255,255,255)" fill-opacity="1.0"><text transform="matrix(5.2,0.0,0.0,5.2,-1.155720828961044,-28.449213991918413)" dominant-baseline="middle" text-anchor="middle" stroke="none">4</text></g></g></g><g><g fill="rgb(0,128,0)" fill-opacity="1.0"><g fill="rgb(0,128,0)" fill-opacity="1.0"><g fill="rgb(0,128,0)" fill-opacity="1.0"><path d="M 30.41467997809443,13.223622743652841 c -5.773159728050814e-16,-2.871880699120125 -2.328119300879874,-5.199999999999999 -5.199999999999999 -5.2c -2.871880699120125,4.014698052269636e-16 -5.199999999999999,2.328119300879874 -5.2 5.199999999999998c 2.256236376488458e-16,2.871880699120125 2.3281193008798735,5.199999999999999 5.1999999999999975 5.2c 2.871880699120125,-4.9777470070728016e-17 5.199999999999999,-2.328119300879873 5.200000000000001 -5.199999999999998Z" /></g></g></g><g fill="rgb(255,255,255)" fill-opacity="1.0"><g fill="rgb(255,255,255)" fill-opacity="1.0"><text transform="matrix(5.2,0.0,0.0,5.2,25.21467997809443,13.223622743652841)" dominant-baseline="middle" text-anchor="middle" stroke="none">3</text></g></g></g><g><g fill="rgb(0,128,0)" fill-opacity="1.0"><g fill="rgb(0,128,0)" fill-opacity="1.0"><g fill="rgb(0,128,0)" fill-opacity="1.0"><path d="M 5.199997646846524,-5.422505243574127e-7 c -5.773159728050814e-16,-2.871880699120125 -2.328119300879874,-5.199999999999999 -5.199999999999999 -5.2c -2.871880699120125,4.014698052269636e-16 -5.199999999999999,2.328119300879874 -5.2 5.199999999999998c 2.256236376488458e-16,2.871880699120125 2.3281193008798735,5.199999999999999 5.1999999999999975 5.2c 2.871880699120125,-4.9777470070728016e-17 5.199999999999999,-2.328119300879873 5.200000000000001 -5.199999999999998Z" /></g></g></g><g fill="rgb(255,255,255)" fill-opacity="1.0"><g fill="rgb(255,255,255)" fill-opacity="1.0"><text transform="matrix(5.2,0.0,0.0,5.2,-2.3531534766030315e-6,-5.422505243574127e-7)" dominant-baseline="middle" text-anchor="middle" stroke="none">2</text></g></g></g><g><g fill="rgb(0,128,0)" fill-opacity="1.0"><g fill="rgb(0,128,0)" fill-opacity="1.0"><g fill="rgb(0,128,0)" fill-opacity="1.0"><path d="M 6.35593430400708,28.451548143980137 c -5.773159728050814e-16,-2.871880699120125 -2.328119300879874,-5.199999999999999 -5.199999999999999 -5.2c -2.871880699120125,4.014698052269636e-16 -5.199999999999999,2.328119300879874 -5.2 5.199999999999998c 2.256236376488458e-16,2.871880699120125 2.3281193008798735,5.199999999999999 5.1999999999999975 5.2c 2.871880699120125,-4.9777470070728016e-17 5.199999999999999,-2.328119300879873 5.200000000000001 -5.199999999999998Z" /></g></g></g><g fill="rgb(255,255,255)" fill-opacity="1.0"><g fill="rgb(255,255,255)" fill-opacity="1.0"><text transform="matrix(5.2,0.0,0.0,5.2,1.1559343040070806,28.451548143980137)" dominant-baseline="middle" text-anchor="middle" stroke="none">1</text></g></g></g><g><g><g stroke-width="0.5"><path d="M 0.211093641483351,5.195792784030128 l 0.6111878512846188,15.043420242396326 " /></g><g stroke-width="0.0"><g fill="rgb(0,0,0)" fill-opacity="1.0"><g fill="rgb(0,0,0)" fill-opacity="1.0"><path d="" /></g></g><g fill="rgb(0,0,0)" fill-opacity="1.0"><g fill="rgb(0,0,0)" fill-opacity="1.0"><path d="" /></g></g></g><g stroke-width="0.0"><g fill="rgb(0,0,0)" fill-opacity="1.0"><g fill="rgb(0,0,0)" fill-opacity="1.0"><path d="M 0.9448383093702515,23.255754817699483 l -1.5196959021452623,-4.102429056728445 l 1.407654362615658,1.344704144156519 l 1.2939290265332217,-1.4544647517892624 Z" /></g></g><g fill="rgb(0,0,0)" fill-opacity="1.0"><g fill="rgb(0,0,0)" fill-opacity="1.0"><path d="M 0.8327967698406471,20.49802990512756 l -0.260309200312888,-0.24866818852632197 l 0.49958784648042137,-2.0297380349566012e-2 l -0.23927864616753336,0.26896556887588796 Z" /></g></g></g></g></g><g><g><g stroke-width="0.5"><path d="M 4.606059737656429,2.415609106135482 l 13.328900549796618,6.990227256099544 " /></g><g stroke-width="0.0"><g fill="rgb(0,0,0)" fill-opacity="1.0"><g fill="rgb(0,0,0)" fill-opacity="1.0"><path d="" /></g></g><g fill="rgb(0,0,0)" fill-opacity="1.0"><g fill="rgb(0,0,0)" fill-opacity="1.0"><path d="" /></g></g></g><g stroke-width="0.0"><g fill="rgb(0,0,0)" fill-opacity="1.0"><g fill="rgb(0,0,0)" fill-opacity="1.0"><path d="M 20.608617887284527,10.808013095266835 l -4.312643865771195,-0.7351888788012362 l 1.8683839546128236,-0.5466822093757558 l -0.6126090863285898,-1.8478176715385808 Z" /></g></g><g fill="rgb(0,0,0)" fill-opacity="1.0"><g fill="rgb(0,0,0)" fill-opacity="1.0"><path d="M 18.164357976126155,9.526142007089843 l -0.3455092002833433,0.10109470941677516 l 0.23222302322046964,-0.4428007085431834 l 0.11328617706287365,0.3417059991264082 Z" /></g></g></g></g></g><g><g><g stroke-width="0.5"><path d="M -0.2110758646123279,-5.1957947661577135 l -0.6110276890615329,-15.041082680297395 " /></g><g stroke-width="0.0"><g fill="rgb(0,0,0)" fill-opacity="1.0"><g fill="rgb(0,0,0)" fill-opacity="1.0"><path d="" /></g></g><g fill="rgb(0,0,0)" fill-opacity="1.0"><g fill="rgb(0,0,0)" fill-opacity="1.0"><path d="" /></g></g></g><g stroke-width="0.0"><g fill="rgb(0,0,0)" fill-opacity="1.0"><g fill="rgb(0,0,0)" fill-opacity="1.0"><path d="M -0.9446473175021894,-23.253419768011227 l 1.5196781506533052,4.102435632513188 l -1.4076485439800641,-1.3447102351560414 l -1.293935320084822,1.4544591528604713 Z" /></g></g><g fill="rgb(0,0,0)" fill-opacity="1.0"><g fill="rgb(0,0,0)" fill-opacity="1.0"><path d="M -0.8326177108289483,-20.49569437065408 l 0.2603081243070029,0.2486693148988583 l -0.49958793430383114,2.029521860022485e-2 l 0.2392798099968282,-0.26896453349908317 Z" /></g></g></g></g></g><g><g><g stroke-width="0.5"><path d="M -4.60606172390606,-2.415615366539822 l -13.331093593187063,-6.9913964878896335 " /></g><g stroke-width="0.0"><g fill="rgb(0,0,0)" fill-opacity="1.0"><g fill="rgb(0,0,0)" fill-opacity="1.0"><path d="" /></g></g><g fill="rgb(0,0,0)" fill-opacity="1.0"><g fill="rgb(0,0,0)" fill-opacity="1.0"><path d="" /></g></g></g><g stroke-width="0.0"><g fill="rgb(0,0,0)" fill-opacity="1.0"><g fill="rgb(0,0,0)" fill-opacity="1.0"><path d="M -20.610811340574095,-10.80919159322769 l 4.312643039257738,0.735193727141846 l -1.8683845692002556,0.5466801089092109 l 0.6126070089829375,1.8478183602420422 Z" /></g></g><g fill="rgb(0,0,0)" fill-opacity="1.0"><g fill="rgb(0,0,0)" fill-opacity="1.0"><path d="M -18.166552870516615,-9.527317757176633 l 0.3455093139353641,-0.10109432098991337 l -0.23222352102374227,0.4428004474741817 l -0.11328579291162186,-0.3417061264842683 Z" /></g></g></g></g></g><g><g><g stroke-width="0.5"><path d="M -4.39469649884215,2.7809331221003553 l -12.719839771909545,8.049031275943168 " /></g><g stroke-width="0.0"><g fill="rgb(0,0,0)" fill-opacity="1.0"><g fill="rgb(0,0,0)" fill-opacity="1.0"><path d="" /></g></g><g fill="rgb(0,0,0)" fill-opacity="1.0"><g fill="rgb(0,0,0)" fill-opacity="1.0"><path d="" /></g></g></g><g stroke-width="0.0"><g fill="rgb(0,0,0)" fill-opacity="1.0"><g fill="rgb(0,0,0)" fill-opacity="1.0"><path d="M -19.665693136244627,12.444319749086366 l 2.793029601388633,-3.3672519130967604 l -0.4607599593096098,1.8914069630303305 l 1.9065597865085588,0.3933825369421605 Z" /></g></g><g fill="rgb(0,0,0)" fill-opacity="1.0"><g fill="rgb(0,0,0)" fill-opacity="1.0"><path d="M -17.333423494165604,10.968474799019937 l 8.52056156180375e-2,-0.34976670913574504 l 0.26736321559174464,0.42251261631866366 l -0.3525688312097821,-7.27459071829186e-2 Z" /></g></g></g></g></g><g><g><g stroke-width="0.5"><path d="M 4.3947006204743095,-2.7809202849771464 l 12.721801316636185,-8.050216057098998 " /></g><g stroke-width="0.0"><g fill="rgb(0,0,0)" fill-opacity="1.0"><g fill="rgb(0,0,0)" fill-opacity="1.0"><path d="" /></g></g><g fill="rgb(0,0,0)" fill-opacity="1.0"><g fill="rgb(0,0,0)" fill-opacity="1.0"><path d="" /></g></g></g><g stroke-width="0.0"><g fill="rgb(0,0,0)" fill-opacity="1.0"><g fill="rgb(0,0,0)" fill-opacity="1.0"><path d="M 19.667663919645214,-12.445483606657687 l -2.793040274620666,3.367243059957783 l 0.46076595453795954,-1.8914055025407255 l -1.9065585395864475,-0.39338858020105794 Z" /></g></g><g fill="rgb(0,0,0)" fill-opacity="1.0"><g fill="rgb(0,0,0)" fill-opacity="1.0"><path d="M 17.335389599562507,-10.96964604924063 l -8.520672428017706e-2,0.3497664390560357 l -0.26736187634366987,-0.4225134637830991 l 0.35256860062384693,7.27470247270634e-2 Z" /></g></g></g></g></g></g></g></g></g></svg>